<svg width="30" height="30" viewBox="0 0 30 30" fill="none" xmlns="http://www.w3.org/2000/svg">
<path fill-rule="evenodd" clip-rule="evenodd" d="M26.8184 6.76969C27.0587 7.13358 27.0187 7.62809 26.6983 7.94845L15.2078 19.4389C15.09 19.5567 14.943 19.641 14.7818 19.6831L9.99631 20.9331C9.84022 20.9739 9.67934 20.973 9.52817 20.9346C9.36747 20.8937 9.21775 20.8102 9.09648 20.6889C8.86114 20.4536 8.76821 20.1111 8.85233 19.7891L10.1023 15.0036C10.1392 14.8625 10.2083 14.7233 10.3039 14.614L21.837 3.08709C21.9379 2.98613 22.0595 2.91058 22.1919 2.86454C22.29 2.83041 22.394 2.8125 22.4999 2.8125C22.7485 2.8125 22.987 2.91127 23.1628 3.08709L26.6983 6.62262C26.7441 6.66839 26.7841 6.7177 26.8184 6.76969ZM24.7096 7.28553L22.4999 5.07583L11.8522 15.7235L11.0709 18.7145L14.0619 17.9332L24.7096 7.28553Z" fill="#191B1C"/>
<path d="M24.5516 21.4504C24.8933 18.5284 25.0021 15.586 24.8778 12.651C24.8718 12.5105 24.9247 12.3737 25.0241 12.2743L26.2533 11.0451C26.4044 10.894 26.6626 10.9899 26.6768 11.2032C26.9079 14.6902 26.8203 18.1932 26.4139 21.6682C26.1182 24.1964 24.0878 26.1776 21.5727 26.4587C17.2395 26.943 12.7603 26.943 8.42707 26.4587C5.912 26.1776 3.88159 24.1964 3.58589 21.6682C3.06772 17.2378 3.06772 12.7622 3.58589 8.33179C3.88159 5.80362 5.912 3.82236 8.42707 3.54126C11.7143 3.17387 15.0854 3.08519 18.4132 3.2752C18.6276 3.28745 18.7254 3.54697 18.5735 3.69887L17.3328 4.93956C17.2345 5.03793 17.0996 5.09076 16.9605 5.08607C14.1775 4.9922 11.3756 5.0984 8.63534 5.40466C6.9727 5.59049 5.64084 6.9025 5.4482 8.5496C4.94695 12.8353 4.94695 17.1647 5.4482 21.4504C5.64084 23.0975 6.9727 24.4095 8.63534 24.5953C12.8301 25.0642 17.1696 25.0642 21.3644 24.5953C23.0271 24.4095 24.3589 23.0975 24.5516 21.4504Z" fill="#191B1C"/>
</svg>
