<svg width="15" height="15" viewBox="0 0 15 15" fill="none" xmlns="http://www.w3.org/2000/svg">
<path fill-rule="evenodd" clip-rule="evenodd" d="M2.03125 6.13622C2.03125 4.48404 3.51196 3.21191 5.25 3.21191C6.14592 3.21191 6.93428 3.62313 7.5 4.15522C8.06572 3.62313 8.85408 3.21191 9.75 3.21191C11.488 3.21191 12.9687 4.48404 12.9687 6.13622C12.9687 7.26798 12.4757 8.26325 11.7926 9.10455C11.1107 9.94439 10.2187 10.6572 9.36467 11.2363C9.03846 11.4576 8.70845 11.6616 8.40642 11.8122C8.12282 11.9536 7.79671 12.0831 7.5 12.0831C7.20328 12.0831 6.87718 11.9536 6.59358 11.8122C6.29155 11.6616 5.96154 11.4576 5.63533 11.2363C4.78128 10.6572 3.8893 9.94439 3.20739 9.10455C2.5243 8.26325 2.03125 7.26798 2.03125 6.13622ZM5.25 4.12962C3.95047 4.12962 2.96875 5.06514 2.96875 6.13622C2.96875 6.99489 3.34112 7.79434 3.94131 8.53354C4.54268 9.27418 5.35183 9.92766 6.16921 10.482C6.47851 10.6917 6.76984 10.8702 7.01903 10.9944C7.28665 11.1279 7.44166 11.1654 7.5 11.1654C7.55833 11.1654 7.71335 11.1279 7.98097 10.9944C8.23016 10.8702 8.52149 10.6917 8.83079 10.482C9.64817 9.92766 10.4573 9.27418 11.0587 8.53354C11.6589 7.79434 12.0312 6.99489 12.0312 6.13622C12.0312 5.06514 11.0495 4.12962 9.75 4.12962C9.00366 4.12962 8.30675 4.5661 7.8716 5.12009C7.78287 5.23305 7.64557 5.29925 7.5 5.29925C7.35443 5.29925 7.21713 5.23305 7.1284 5.12009C6.69325 4.5661 5.99634 4.12962 5.25 4.12962Z" fill="#F8F9FA"/>
</svg>
