<svg width="32" height="32" viewBox="0 0 32 32" fill="none" xmlns="http://www.w3.org/2000/svg">
<path d="M12.0902 4.304C10.2722 4.10081 8.39349 4.10081 6.57551 4.304C5.40593 4.43472 4.46019 5.35572 4.32227 6.53497C4.10482 8.3942 4.10482 10.2724 4.32227 12.1317C4.46019 13.3109 5.40593 14.2319 6.57551 14.3626C8.39349 14.5658 10.2722 14.5658 12.0902 14.3626C13.2598 14.2319 14.2055 13.3109 14.3434 12.1317C14.5609 10.2724 14.5609 8.39419 14.3434 6.53497C14.2055 5.35572 13.2598 4.43472 12.0902 4.304Z" fill="#E2E6E9"/>
<path d="M12.0902 17.6373C10.2722 17.4341 8.39349 17.4341 6.57551 17.6373C5.40593 17.7681 4.46019 18.6891 4.32227 19.8683C4.10482 21.7275 4.10482 23.6058 4.32227 25.465C4.46019 26.6442 5.40593 27.5652 6.57551 27.696C8.39349 27.8991 10.2722 27.8991 12.0902 27.696C13.2598 27.5652 14.2055 26.6442 14.3434 25.465C14.5609 23.6058 14.5609 21.7275 14.3434 19.8683C14.2055 18.6891 13.2598 17.7681 12.0902 17.6373Z" fill="#E2E6E9"/>
<path d="M25.4236 4.304C23.6056 4.10081 21.7268 4.10081 19.9089 4.304C18.7393 4.43472 17.7935 5.35572 17.6556 6.53497C17.4382 8.3942 17.4382 10.2724 17.6556 12.1317C17.7935 13.3109 18.7393 14.2319 19.9089 14.3626C21.7268 14.5658 23.6056 14.5658 25.4236 14.3626C26.5931 14.2319 27.5389 13.3109 27.6768 12.1317C27.8942 10.2724 27.8942 8.39419 27.6768 6.53497C27.5389 5.35572 26.5931 4.43472 25.4236 4.304Z" fill="#E2E6E9"/>
<path d="M25.4236 17.6373C23.6056 17.4341 21.7268 17.4341 19.9089 17.6373C18.7393 17.7681 17.7935 18.6891 17.6556 19.8683C17.4382 21.7275 17.4382 23.6058 17.6556 25.465C17.7935 26.6442 18.7393 27.5652 19.9089 27.696C21.7268 27.8991 23.6056 27.8991 25.4236 27.696C26.5931 27.5652 27.5389 26.6442 27.6768 25.465C27.8942 23.6058 27.8942 21.7275 27.6768 19.8683C27.5389 18.6891 26.5931 17.7681 25.4236 17.6373Z" fill="#E2E6E9"/>
</svg>
