<svg width="30" height="30" viewBox="0 0 30 30" fill="none" xmlns="http://www.w3.org/2000/svg">
<path d="M11.25 6.5625V23.4375" stroke="black" stroke-width="1.25" stroke-linecap="round" stroke-linejoin="round"/>
<path d="M2.8125 19.5926C2.81246 19.3766 2.8871 19.1673 3.02377 19C3.16045 18.8328 3.35074 18.718 3.5624 18.675C4.40937 18.502 5.17056 18.0417 5.71724 17.372C6.26391 16.7024 6.5625 15.8645 6.5625 15C6.5625 14.1355 6.26391 13.2976 5.71724 12.628C5.17056 11.9583 4.40937 11.498 3.5624 11.325C3.35074 11.282 3.16045 11.1672 3.02377 11C2.8871 10.8327 2.81246 10.6234 2.8125 10.4074V7.5C2.8125 7.25136 2.91127 7.0129 3.08709 6.83709C3.2629 6.66127 3.50136 6.5625 3.75 6.5625H26.25C26.4986 6.5625 26.7371 6.66127 26.9129 6.83709C27.0887 7.0129 27.1875 7.25136 27.1875 7.5V10.4074C27.1875 10.6234 27.1129 10.8327 26.9762 11C26.8396 11.1672 26.6493 11.282 26.4376 11.325C25.5906 11.498 24.8294 11.9583 24.2828 12.628C23.7361 13.2976 23.4375 14.1355 23.4375 15C23.4375 15.8645 23.7361 16.7024 24.2828 17.372C24.8294 18.0417 25.5906 18.502 26.4376 18.675C26.6493 18.718 26.8396 18.8328 26.9762 19C27.1129 19.1673 27.1875 19.3766 27.1875 19.5926V22.5C27.1875 22.7486 27.0887 22.9871 26.9129 23.1629C26.7371 23.3387 26.4986 23.4375 26.25 23.4375H3.75C3.50136 23.4375 3.2629 23.3387 3.08709 23.1629C2.91127 22.9871 2.8125 22.7486 2.8125 22.5V19.5926Z" stroke="black" stroke-width="1.25" stroke-linecap="round" stroke-linejoin="round"/>
</svg>
