<svg width="30" height="30" viewBox="0 0 30 30" fill="none" xmlns="http://www.w3.org/2000/svg">
<path d="M20.625 7.5H9.37499C5.23286 7.5 1.875 10.8579 1.875 15V15C1.875 19.1421 5.23286 22.5 9.37499 22.5H20.625C24.7671 22.5 28.125 19.1421 28.125 15C28.125 10.8579 24.7671 7.5 20.625 7.5Z" fill="#0D6EFD"/>
<path d="M9.37499 7.5H20.625C24.7671 7.5 28.125 10.8579 28.125 15V15C28.125 19.1421 24.7671 22.5 20.625 22.5H9.37499C5.23286 22.5 1.875 19.1421 1.875 15V15C1.875 10.8579 5.23286 7.5 9.37499 7.5Z" stroke="#0D6EFD" stroke-width="1.25" stroke-linecap="round" stroke-linejoin="round"/>
<path d="M20.625 18.75C22.6961 18.75 24.375 17.0711 24.375 15C24.375 12.9289 22.6961 11.25 20.625 11.25C18.5539 11.25 16.875 12.9289 16.875 15C16.875 17.0711 18.5539 18.75 20.625 18.75Z" fill="#F8F9FA" stroke="white" stroke-width="1.25" stroke-linecap="round" stroke-linejoin="round"/>
</svg>
