<svg width="50" height="50" viewBox="0 0 50 50" fill="none" xmlns="http://www.w3.org/2000/svg">
<path d="M15.2314 39.325L8.81794 44.7164C8.59017 44.9079 8.31247 45.0303 8.0175 45.0694C7.72252 45.1084 7.42253 45.0624 7.1528 44.9368C6.88307 44.8112 6.65482 44.6111 6.49489 44.3602C6.33496 44.1093 6.25 43.8179 6.25 43.5204V12.5001C6.25 12.0857 6.41462 11.6883 6.70765 11.3953C7.00067 11.1022 7.3981 10.9376 7.8125 10.9376H42.1875C42.6019 10.9376 42.9993 11.1022 43.2924 11.3953C43.5854 11.6883 43.75 12.0857 43.75 12.5001V37.5001C43.75 37.9145 43.5854 38.312 43.2924 38.605C42.9993 38.898 42.6019 39.0626 42.1875 39.0626H15.9514L15.2314 39.325Z" stroke="#191B1C" stroke-width="1.25" stroke-linecap="round" stroke-linejoin="round"/>
<path d="M18.75 21.875H31.25" stroke="#191B1C" stroke-width="1.25" stroke-linecap="round" stroke-linejoin="round"/>
<path d="M18.75 28.125H31.25" stroke="#191B1C" stroke-width="1.25" stroke-linecap="round" stroke-linejoin="round"/>
</svg>
