<svg width="28" height="36" viewBox="0 0 28 36" fill="none" xmlns="http://www.w3.org/2000/svg">
<path d="M17 0H3.4C2.49826 0 1.63346 0.371661 0.995837 1.03322C0.358213 1.69478 0 2.59205 0 3.52764V31.7488C0 32.6844 0.358213 33.5816 0.995837 34.2432C1.63346 34.9048 2.49826 35.2764 3.4 35.2764H23.8C24.7017 35.2764 25.5665 34.9048 26.2042 34.2432C26.8418 33.5816 27.2 32.6844 27.2 31.7488V10.5829L17 0ZM9.2582 27.184C9.7257 27.184 10.2459 27.0764 10.5536 26.9512L10.7882 28.2088C10.5026 28.3569 9.86 28.5157 9.0253 28.5157C6.6504 28.5157 5.4264 26.9829 5.4264 24.951C5.4247 22.5205 7.0975 21.1658 9.1766 21.1658C9.9824 21.1658 10.5927 21.3352 10.8681 21.4833L10.5519 22.7639C10.1379 22.587 9.69401 22.4977 9.2463 22.5011C8.0121 22.5011 7.0533 23.2736 7.0533 24.8593C7.055 26.2845 7.8727 27.184 9.2582 27.184ZM13.4929 28.5157C12.7092 28.5157 11.934 28.3058 11.5464 28.0836L11.8626 26.7501C12.2808 26.9723 12.9234 27.1946 13.5864 27.1946C14.3004 27.1946 14.6778 26.8877 14.6778 26.422C14.6778 25.9776 14.3514 25.7236 13.5252 25.4167C12.3828 25.0039 11.6399 24.3495 11.6399 23.3124C11.6399 22.0971 12.6174 21.1658 14.2392 21.1658C15.0127 21.1658 15.5839 21.3352 15.9919 21.5239L15.6451 22.8256C15.1969 22.6003 14.7049 22.4845 14.2069 22.4869C13.5337 22.4869 13.209 22.8062 13.209 23.1748C13.209 23.6299 13.5966 23.831 14.4823 24.1802C15.6961 24.6459 16.2673 25.302 16.2673 26.3056C16.2656 27.5015 15.3782 28.5157 13.4929 28.5157ZM19.0009 28.5157C18.2172 28.5157 17.442 28.3058 17.0544 28.0836L17.3706 26.7501C17.7888 26.9723 18.4314 27.1946 19.0944 27.1946C19.8084 27.1946 20.1858 26.8877 20.1858 26.422C20.1858 25.9776 19.8594 25.7236 19.0332 25.4167C17.8908 25.0039 17.1479 24.3495 17.1479 23.3124C17.1479 22.0971 18.1254 21.1658 19.7472 21.1658C20.5207 21.1658 21.0919 21.3352 21.4999 21.5239L21.1531 22.8256C20.7049 22.6003 20.2129 22.4845 19.7149 22.4869C19.0417 22.4869 18.717 22.8062 18.717 23.1748C18.717 23.6299 19.1046 23.831 19.9903 24.1802C21.2041 24.6459 21.7753 25.302 21.7753 26.3056C21.7753 27.5015 20.8862 28.5157 19.0009 28.5157ZM17 12.3467H15.3V3.52764L23.8 12.3467H17Z" fill="black"/>
</svg>
