<svg width="28" height="36" viewBox="0 0 28 36" fill="none" xmlns="http://www.w3.org/2000/svg">
<path d="M17.5996 0H3.99961C3.09787 0 2.23307 0.371661 1.59545 1.03322C0.957822 1.69478 0.599609 2.59205 0.599609 3.52764V31.7488C0.599609 32.6844 0.957822 33.5816 1.59545 34.2432C2.23307 34.9048 3.09787 35.2764 3.99961 35.2764H24.3996C25.3013 35.2764 26.1661 34.9048 26.8038 34.2432C27.4414 33.5816 27.7996 32.6844 27.7996 31.7488V10.5829L17.5996 0ZM15.8996 3.52764L24.3996 12.3467H15.8996V3.52764ZM8.30231 28.2211H7.01031V25.7324H4.87511V28.2211H3.57121V22.2718H4.87511V24.5577H7.01201V22.2718H8.30401L8.30231 28.2211ZM13.4023 23.4024H11.8366V28.2211H10.5344V23.4024H8.99591V22.2718H13.4023V23.4024ZM18.9902 28.2211L18.9052 25.944C18.8763 25.2297 18.8542 24.3637 18.8542 23.4976H18.827C18.6502 24.2578 18.4105 25.1045 18.1895 25.8029L17.4925 28.1241H16.4776L15.8673 25.8188C15.6607 25.0535 15.4872 24.279 15.3471 23.4976H15.3284C15.2927 24.3019 15.2706 25.2191 15.2281 25.9599L15.1261 28.2211H13.9276L14.2948 22.2718H16.0203L16.583 24.2578C16.7598 24.9475 16.94 25.6883 17.0658 26.385H17.0947C17.2562 25.6953 17.45 24.9104 17.6387 24.249L18.249 22.2718H19.9422L20.2567 28.2211H18.9902ZM24.828 28.2211H21.2444V22.2718H22.5483V27.0905H24.8297L24.828 28.2211Z" fill="black"/>
</svg>
