<svg width="119" height="111" viewBox="0 0 119 111" fill="none" xmlns="http://www.w3.org/2000/svg">
<path d="M105.233 80.1555C108.084 77.9489 108.084 73.6438 105.233 71.4373C96.6145 64.769 86.9914 59.513 76.7232 55.8662L74.8473 55.1999C71.2585 53.9253 67.4678 56.3534 66.982 60.058C65.6245 70.4086 65.6245 81.1841 66.982 91.5347C67.4678 95.2393 71.2585 97.6674 74.8473 96.3928L76.7232 95.7265C86.9913 92.0797 96.6145 86.8237 105.233 80.1555Z" fill="url(#paint0_linear_447_1932)"/>
<g filter="url(#filter0_d_447_1932)">
<path d="M84.9948 38.4152C83.2678 24.5373 72.2681 13.5376 58.3902 11.8106C56.2893 11.5491 54.5645 13.2905 54.5645 15.4076V40.3242C54.5645 41.3828 55.4226 42.2409 56.4811 42.2409H81.3978C83.5149 42.2409 85.2563 40.5161 84.9948 38.4152Z" fill="#FF8AA7" fill-opacity="0.4"/>
<path d="M46.8978 17.3243C28.9025 17.3243 14.3145 31.9123 14.3145 49.9076C14.3145 67.9029 28.9025 82.4909 46.8978 82.4909C64.8931 82.4909 79.4811 67.9029 79.4811 49.9076C79.4811 48.8491 78.623 47.9909 77.5645 47.9909H50.7311C49.6726 47.9909 48.8145 47.1328 48.8145 46.0743V19.2409C48.8145 18.1824 47.9563 17.3243 46.8978 17.3243Z" fill="#FF8AA7" fill-opacity="0.4"/>
</g>
<defs>
<filter id="filter0_d_447_1932" x="-0.102539" y="-0.92572" width="100" height="100" filterUnits="userSpaceOnUse" color-interpolation-filters="sRGB">
<feFlood flood-opacity="0" result="BackgroundImageFix"/>
<feColorMatrix in="SourceAlpha" type="matrix" values="0 0 0 0 0 0 0 0 0 0 0 0 0 0 0 0 0 0 127 0" result="hardAlpha"/>
<feOffset dx="3" dy="3"/>
<feGaussianBlur stdDeviation="2"/>
<feComposite in2="hardAlpha" operator="out"/>
<feColorMatrix type="matrix" values="0 0 0 0 1 0 0 0 0 0.541176 0 0 0 0 0.654902 0 0 0 0.2 0"/>
<feBlend mode="normal" in2="BackgroundImageFix" result="effect1_dropShadow_447_1932"/>
<feBlend mode="normal" in="SourceGraphic" in2="effect1_dropShadow_447_1932" result="shape"/>
</filter>
<linearGradient id="paint0_linear_447_1932" x1="86.6676" y1="54.8573" x2="86.6676" y2="96.7354" gradientUnits="userSpaceOnUse">
<stop stop-color="#FF8AA7"/>
<stop offset="1" stop-color="#FFCCCC"/>
</linearGradient>
</defs>
</svg>
