<svg width="121" height="111" viewBox="0 0 121 111" fill="none" xmlns="http://www.w3.org/2000/svg">
<g filter="url(#filter0_d_447_1926)">
<path fill-rule="evenodd" clip-rule="evenodd" d="M85.2608 50.8632C84.5609 50.6645 83.8225 50.6647 83.1225 50.8639C81.6319 51.2881 80.1272 51.681 78.6173 52.0752C71.8793 53.8345 64.4603 55.7716 58.1139 60.9504L55.1217 63.3922C52.7356 65.3393 52.7369 69.1525 55.125 71.0976L58.0688 73.4953C60.2437 75.2667 62.5102 76.6524 64.833 77.7823V91.0906C64.833 94.3488 66.8318 97.2734 69.8674 98.4569L81.3674 102.94C83.2143 103.66 85.2642 103.66 87.1111 102.94L98.6111 98.4569C101.647 97.2734 103.646 94.3488 103.646 91.0906V77.8062C105.953 76.6822 108.204 75.3036 110.365 73.5408L110.833 73.1586V87.3706C110.833 88.5615 111.798 89.5269 112.989 89.5269C114.18 89.5269 115.146 88.5615 115.146 87.3706V67.2456C115.145 65.8058 114.548 64.3661 113.354 63.3936L110.41 60.9959C104.017 55.7892 96.2864 53.7729 89.757 52.07C88.2504 51.6771 86.7487 51.2854 85.2608 50.8632ZM73.5993 78.2058C72.5072 77.7308 71.2369 78.231 70.762 79.3231C70.287 80.4151 70.7872 81.6855 71.8793 82.1604C75.5531 83.7583 79.356 85.0656 83.2533 86.0659C83.9325 86.2402 84.6448 86.24 85.3241 86.0652C89.2109 85.0648 93.0025 83.7574 96.6646 82.1594C97.7561 81.6831 98.2548 80.4122 97.7785 79.3207C97.3022 78.2292 96.0313 77.7305 94.9398 78.2068C91.4996 79.708 87.938 80.9372 84.2873 81.879C80.6254 80.937 77.0519 79.7074 73.5993 78.2058Z" fill="url(#paint0_linear_447_1926)"/>
</g>
<g opacity="0.4" filter="url(#filter1_d_447_1926)">
<path fill-rule="evenodd" clip-rule="evenodd" d="M44.7837 15.9574C34.0476 9.58582 20.9175 8.54517 9.29269 13.1445C7.59951 13.8144 6.48926 15.4365 6.48926 17.2403V61.4469C6.48926 64.408 9.51284 66.4329 12.2924 65.3331C21.8119 61.5667 32.5642 62.4189 41.3559 67.6366L45.7078 70.2193C46.0396 70.4163 46.3946 70.5024 46.7393 70.4964C47.0839 70.5024 47.4389 70.4163 47.7708 70.2193L52.1227 67.6366C60.9144 62.4189 71.6666 61.5667 81.1861 65.3331C83.9657 66.4329 86.9893 64.408 86.9893 61.4469V17.2403C86.9893 15.4365 85.879 13.8144 84.1858 13.1445C72.5611 8.54517 59.4309 9.58582 48.6949 15.9574L46.7393 17.118L44.7837 15.9574ZM49.6143 25.0164C49.6143 23.4459 48.3271 22.1727 46.7393 22.1727C45.1514 22.1727 43.8643 23.4459 43.8643 25.0164V61.0373C43.8643 62.6078 45.1514 63.881 46.7393 63.881C48.3271 63.881 49.6143 62.6078 49.6143 61.0373V25.0164Z" fill="#67A4FF"/>
<path d="M11.1845 72.5724C18.9426 68.096 28.5359 68.096 36.294 72.5724L40.4619 74.9772C44.3409 77.2154 49.1376 77.2154 53.0167 74.9772L57.1845 72.5724C64.9426 68.096 74.5359 68.096 82.294 72.5724L82.6879 72.7997C84.0594 73.591 84.5227 75.3323 83.7226 76.6889C82.9226 78.0455 81.1621 78.5038 79.7906 77.7124L79.3968 77.4852C73.429 74.0418 66.0495 74.0418 60.0817 77.4852L55.9139 79.89C50.2445 83.1612 43.234 83.1612 37.5646 79.89L33.3968 77.4852C27.429 74.0418 20.0495 74.0418 14.0817 77.4852L13.6879 77.7124C12.3164 78.5038 10.5559 78.0455 9.75589 76.6889C8.95584 75.3323 9.4191 73.591 10.7906 72.7997L11.1845 72.5724Z" fill="#67A4FF"/>
</g>
<defs>
<filter id="filter0_d_447_1926" x="48.7393" y="40.3706" width="75" height="75" filterUnits="userSpaceOnUse" color-interpolation-filters="sRGB">
<feFlood flood-opacity="0" result="BackgroundImageFix"/>
<feColorMatrix in="SourceAlpha" type="matrix" values="0 0 0 0 0 0 0 0 0 0 0 0 0 0 0 0 0 0 127 0" result="hardAlpha"/>
<feOffset dx="2" dy="2"/>
<feGaussianBlur stdDeviation="1.5"/>
<feComposite in2="hardAlpha" operator="out"/>
<feColorMatrix type="matrix" values="0 0 0 0 0.364706 0 0 0 0 0.494118 0 0 0 0 0.690196 0 0 0 0.2 0"/>
<feBlend mode="normal" in2="BackgroundImageFix" result="effect1_dropShadow_447_1926"/>
<feBlend mode="normal" in="SourceGraphic" in2="effect1_dropShadow_447_1926" result="shape"/>
</filter>
<filter id="filter1_d_447_1926" x="-0.260742" y="-0.629395" width="100" height="99" filterUnits="userSpaceOnUse" color-interpolation-filters="sRGB">
<feFlood flood-opacity="0" result="BackgroundImageFix"/>
<feColorMatrix in="SourceAlpha" type="matrix" values="0 0 0 0 0 0 0 0 0 0 0 0 0 0 0 0 0 0 127 0" result="hardAlpha"/>
<feOffset dx="3" dy="3"/>
<feGaussianBlur stdDeviation="2"/>
<feComposite in2="hardAlpha" operator="out"/>
<feColorMatrix type="matrix" values="0 0 0 0 0.363125 0 0 0 0 0.495911 0 0 0 0 0.691667 0 0 0 0.6 0"/>
<feBlend mode="normal" in2="BackgroundImageFix" result="effect1_dropShadow_447_1926"/>
<feBlend mode="normal" in="SourceGraphic" in2="effect1_dropShadow_447_1926" result="shape"/>
</filter>
<linearGradient id="paint0_linear_447_1926" x1="84.2393" y1="50.7144" x2="84.2393" y2="103.48" gradientUnits="userSpaceOnUse">
<stop stop-color="#0D6EFD"/>
<stop offset="1" stop-color="#82C7FF"/>
</linearGradient>
</defs>
</svg>
