<svg width="32" height="34" viewBox="0 0 32 34" fill="none" xmlns="http://www.w3.org/2000/svg">
<path d="M0 0V33.2013H32V0H0ZM17.1429 25.7903C17.1429 29.0223 15.3029 30.5978 12.6393 30.5978C10.2336 30.5978 8.83714 29.3054 8.12857 27.7453L10.5771 26.2076C11.0493 27.0769 11.4079 27.812 12.4386 27.812C13.2957 27.812 14 27.4111 14 25.8511V15.4149H17.1429V25.7903ZM24.2393 30.5237C21.4471 30.5237 19.6429 29.2164 18.7621 27.4111L21.2143 25.9385C21.8571 27.0309 22.6964 27.7587 24.1786 27.7587C25.4243 27.7587 26.1479 27.1866 26.1479 26.295C26.1479 25.2256 25.4029 24.8469 24.0279 24.2199L23.2764 23.8849C21.1064 22.9274 19.6679 21.7239 19.6679 19.1827C19.6679 16.843 21.3857 15.134 24.0707 15.134C25.9829 15.134 27.3564 15.7506 28.3457 17.5559L26 19.1204C25.4843 18.1622 24.9286 17.7864 24.0671 17.7864C23.1864 17.7864 22.6279 18.366 22.6279 19.1204C22.6279 20.0564 23.1864 20.4351 24.475 21.0147L25.2264 21.3489C27.7829 22.4857 29.2221 23.6463 29.2221 26.252C29.2229 29.0608 27.0964 30.5237 24.2393 30.5237Z" fill="black"/>
</svg>
