<svg width="27" height="39" viewBox="0 0 27 39" fill="none" xmlns="http://www.w3.org/2000/svg">
<path d="M8.89285 29.6325C8.89285 29.6325 7.51732 30.4635 9.87236 30.7437C12.7254 31.083 14.1834 31.0347 17.326 30.4153C17.326 30.4153 18.154 30.9538 19.3075 31.4207C12.2589 34.5536 3.35776 31.237 8.89285 29.6325ZM8.03033 25.544C8.03033 25.544 6.48831 26.7283 8.84335 26.982C11.8914 27.3073 14.2974 27.3353 18.463 26.5027C18.463 26.5027 19.039 27.1081 19.9435 27.4396C11.4249 30.0247 1.93273 27.6419 8.03033 25.544ZM15.2905 18.6058C17.0275 20.6804 14.8344 22.548 14.8344 22.548C14.8344 22.548 19.243 20.1855 17.218 17.2284C15.3265 14.4706 13.8759 13.101 21.7286 8.37599C21.7286 8.37444 9.40436 11.568 15.2905 18.6058ZM24.6116 32.658C24.6116 32.658 25.6301 33.528 23.4911 34.2003C19.423 35.4796 6.55881 35.864 2.98725 34.2517C1.70323 33.6712 4.11227 32.8665 4.86828 32.6984C5.65879 32.521 6.1103 32.5537 6.1103 32.5537C4.68078 31.5094 -3.12385 34.6034 2.14574 35.4905C16.516 37.9075 28.3392 34.4011 24.6116 32.658ZM9.55436 21.3061C9.55436 21.3061 3.01125 22.9184 7.23832 23.5036C9.02185 23.7511 12.5799 23.695 15.8935 23.4071C18.6025 23.1705 21.3206 22.6647 21.3206 22.6647C21.3206 22.6647 20.365 23.0881 19.6735 23.5783C13.0299 25.3914 0.194204 24.5479 3.89026 22.6943C7.01332 21.1286 9.55436 21.3061 9.55436 21.3061ZM21.2906 28.1135C28.0452 24.4716 24.9221 20.9714 22.7426 21.4446C22.2101 21.5597 21.9701 21.6593 21.9701 21.6593C21.9701 21.6593 22.1681 21.3372 22.5476 21.1971C26.8601 19.6236 30.1767 25.8365 21.1555 28.2971C21.1555 28.2956 21.2605 28.2006 21.2906 28.1135ZM17.218 0.746826C17.218 0.746826 20.959 4.62833 13.6704 10.5984C7.82633 15.3873 12.3384 18.1187 13.6689 21.2376C10.2579 18.0424 7.75433 15.2332 9.43286 12.617C11.8989 8.77442 18.7285 6.91304 17.218 0.746826ZM10.2174 37.9807C16.7005 38.4118 26.6561 37.7425 26.8916 34.5598C26.8916 34.5598 26.4386 35.766 21.5336 36.7247C16.0015 37.8048 9.17485 37.6787 5.12779 36.9862C5.12779 36.9846 5.9573 37.6974 10.2174 37.9807Z" fill="black"/>
</svg>
