<svg width="32" height="32" viewBox="0 0 32 32" fill="none" xmlns="http://www.w3.org/2000/svg">
<path d="M2.03354 7.50865C-0.800636 11.7332 -0.449534 17.2279 1.71715 21.7143C1.76654 21.8237 1.82128 21.9276 1.87468 22.0315C1.90538 22.1035 1.94009 22.17 1.97747 22.2379C1.99483 22.2766 2.01886 22.3168 2.04022 22.3528C2.07493 22.4248 2.11231 22.4941 2.14835 22.5634L2.35794 22.9304C2.39666 22.9983 2.43404 23.0648 2.47809 23.1326C2.55152 23.2628 2.63829 23.3917 2.71439 23.5219C2.74909 23.5759 2.78113 23.6299 2.81985 23.6839C2.94932 23.8949 3.08739 24.1001 3.2337 24.2989C3.33782 24.4471 3.44195 24.5912 3.55409 24.7352C3.59014 24.7878 3.63019 24.8405 3.66757 24.8931L3.9626 25.2657C3.99864 25.3086 4.03469 25.3585 4.0734 25.4028C4.20423 25.5663 4.34307 25.7256 4.48191 25.8862C4.48191 25.889 4.48591 25.8918 4.48858 25.8959C4.65765 26.1177 4.84723 26.3219 5.05462 26.5054C5.16142 26.6189 5.26822 26.7325 5.38169 26.8433L5.51652 26.9777C5.66471 27.1217 5.81289 27.2658 5.96908 27.4043C5.97175 27.4043 5.97309 27.4071 5.97576 27.4085L6.05185 27.4777C6.18802 27.601 6.32553 27.7243 6.4657 27.8378L6.63257 27.9833C6.74605 28.0775 6.86352 28.1675 6.97967 28.2603L7.16123 28.4043C7.28538 28.5013 7.41755 28.5969 7.54437 28.6911C7.59109 28.7257 7.63782 28.7603 7.68588 28.7922L7.72459 28.824L8.09972 29.0803L8.25992 29.1911C8.45617 29.3213 8.65107 29.4446 8.84465 29.5665C8.90072 29.5955 8.95679 29.6274 9.00885 29.6606C9.15303 29.7465 9.30255 29.8338 9.44806 29.9141C9.52816 29.9612 9.61093 30.0014 9.6937 30.0443C9.79382 30.1025 9.89795 30.1593 10.0048 30.2174C10.0306 30.2256 10.0556 30.2363 10.0795 30.2493C10.1236 30.2701 10.1649 30.2922 10.2077 30.3144C10.3679 30.3975 10.5347 30.4765 10.7083 30.5554C10.7403 30.5693 10.775 30.5831 10.8097 30.6025C11.002 30.6898 11.1942 30.7729 11.3931 30.8546C11.4385 30.8684 11.4866 30.892 11.5333 30.91C11.7135 30.9806 11.8991 31.0527 12.082 31.1205L12.1487 31.1455C12.353 31.2175 12.5546 31.2868 12.7615 31.3532C12.8096 31.3671 12.859 31.3851 12.9097 31.3989C13.1219 31.4654 13.3275 31.5444 13.5411 31.5873C27.2381 34.1775 31.219 23.0426 31.219 23.0426C27.8749 27.5608 21.9409 28.752 16.3206 27.4265C16.1123 27.3766 15.9041 27.3073 15.6945 27.2436C15.4404 27.1658 15.188 27.0822 14.9375 26.9929L14.8548 26.9597C14.6732 26.896 14.4983 26.8253 14.3208 26.7547C14.2725 26.7339 14.2235 26.715 14.1739 26.6979C13.9777 26.6162 13.7868 26.5317 13.5972 26.4444C13.5558 26.4306 13.5211 26.4112 13.4797 26.3946C13.3184 26.3175 13.1578 26.239 12.9978 26.1591C12.9484 26.1369 12.9043 26.1134 12.8563 26.0871C12.7308 26.0261 12.6053 25.9569 12.4825 25.8904C12.3981 25.8484 12.3149 25.804 12.2328 25.7574C12.082 25.6743 11.9311 25.5843 11.7803 25.4984C11.7349 25.4652 11.6828 25.4375 11.6308 25.407C11.4339 25.2861 11.239 25.1618 11.046 25.0344C10.9924 24.9998 10.9398 24.9633 10.8885 24.925C10.7469 24.8344 10.6079 24.7392 10.472 24.6396C10.4253 24.6078 10.3826 24.5731 10.3345 24.5385C10.2019 24.4432 10.071 24.3453 9.94201 24.2449C9.88594 24.1978 9.82586 24.1535 9.76579 24.1064C9.64831 24.0108 9.52949 23.9194 9.41202 23.8183L9.25449 23.6881C9.10329 23.5615 8.95463 23.4318 8.8086 23.2989C8.79341 23.2834 8.77687 23.2695 8.75921 23.2573L8.29597 22.8196L8.16247 22.6894C8.053 22.5744 7.94086 22.4636 7.82872 22.3501L7.69923 22.2115C7.5582 22.066 7.42066 21.9168 7.28672 21.7642L7.26669 21.742C7.12518 21.5813 6.98768 21.4179 6.84884 21.2517C6.8128 21.2087 6.77942 21.163 6.74204 21.1173L6.44033 20.7336C6.2864 20.5289 6.13509 20.322 5.98644 20.1131C2.86924 15.6974 1.74118 9.60293 4.23627 4.60409M10.8271 3.95032C8.77256 7.01002 8.8887 11.1016 10.488 14.3372C10.7523 14.8819 11.0544 15.4059 11.3918 15.9052C11.6988 16.3622 12.0379 16.9024 12.4491 17.2709C12.592 17.4399 12.7468 17.6033 12.9083 17.7681L13.0285 17.8928C13.1807 18.0451 13.3369 18.1947 13.4957 18.3429L13.5158 18.361C13.6958 18.524 13.8801 18.682 14.0684 18.8347C14.1138 18.8665 14.1526 18.9039 14.1966 18.9358C14.3835 19.0854 14.5717 19.2294 14.7666 19.3721L14.7867 19.3845C14.8694 19.4469 14.9576 19.5037 15.051 19.5646C15.0884 19.5895 15.1311 19.6228 15.1712 19.6477C15.3127 19.7419 15.4515 19.8305 15.5943 19.9206C15.617 19.9303 15.6371 19.9427 15.6584 19.9524C15.7786 20.0286 15.9094 20.102 16.0349 20.1699C16.0789 20.1976 16.1217 20.2184 16.1671 20.2447C16.2565 20.2904 16.3446 20.3389 16.43 20.386L16.4728 20.4054C16.653 20.4968 16.8372 20.5827 17.0174 20.6685C17.0628 20.6865 17.1015 20.7018 17.1403 20.7212C17.2884 20.7877 17.4393 20.8514 17.5875 20.9109C17.6542 20.9345 17.717 20.9622 17.7797 20.983C17.9159 21.0356 18.0587 21.0841 18.1936 21.1325L18.3805 21.1949C18.5754 21.2572 18.7729 21.3389 18.9785 21.3736C29.5516 23.1922 32 14.7431 32 14.7431C29.7959 18.0341 25.5306 19.602 20.985 18.3776C20.784 18.3236 20.5846 18.2635 20.3869 18.1975C20.3229 18.1795 20.2668 18.1587 20.2054 18.1393C20.0665 18.0895 19.9237 18.041 19.7889 17.9884L19.5966 17.9136C19.4471 17.8512 19.2949 17.7931 19.1494 17.7266C19.104 17.7058 19.0626 17.6919 19.0279 17.6712C18.841 17.5839 18.6528 17.498 18.4712 17.4052L18.1962 17.257L18.0374 17.1739C17.9145 17.1074 17.8011 17.0382 17.6836 16.9661C17.6552 16.9521 17.6275 16.9364 17.6008 16.9191C17.4593 16.8276 17.3125 16.739 17.1776 16.6448C17.1322 16.6185 17.0909 16.5866 17.0481 16.5589L16.7705 16.3706C16.5782 16.232 16.39 16.0825 16.2004 15.9384C16.1577 15.8982 16.1163 15.865 16.0749 15.829C14.0765 14.1987 12.4998 11.9701 11.7522 9.44641C10.9646 6.82303 11.1382 3.88106 12.4985 1.49314M18.2216 1.28953C17.0094 3.13449 16.8933 5.42546 17.7276 7.46018C18.6141 9.62094 20.427 11.3177 22.5389 12.1211C22.6257 12.1557 22.7098 12.1848 22.7993 12.218L22.9167 12.2554C23.0396 12.2956 23.1637 12.3427 23.2905 12.3718C29.1324 13.5408 30.7131 9.25943 31.1389 8.63059C29.7479 10.7027 27.4157 11.2 24.5548 10.4783C24.3214 10.4178 24.0914 10.3438 23.8659 10.2567C23.5856 10.1545 23.3107 10.0371 23.0422 9.90489C22.5342 9.64939 22.0513 9.34322 21.6004 8.99072C19.0373 6.97677 17.45 3.13172 19.1214 0" fill="black"/>
</svg>
