<svg width="32" height="38" viewBox="0 0 32 38" fill="none" xmlns="http://www.w3.org/2000/svg">
<path d="M15.9926 37.3515C15.514 37.3515 15.0282 37.2181 14.6067 36.9661L10.1992 34.2608C9.54196 33.8754 9.86342 33.742 10.0777 33.6679C10.9564 33.3492 11.135 33.2825 12.0708 32.7266C12.1708 32.6673 12.2994 32.6895 12.3994 32.7562L15.7854 34.8389C15.9069 34.913 16.0783 34.913 16.1926 34.8389L29.3868 26.938C29.5082 26.8639 29.5868 26.7156 29.5868 26.5674V10.7656C29.5868 10.6099 29.5082 10.4691 29.3796 10.3876L16.1926 2.49405C16.0712 2.41994 15.9069 2.41994 15.7854 2.49405L2.60556 10.395C2.47697 10.4691 2.39839 10.6173 2.39839 10.773V26.5674C2.39839 26.7156 2.47697 26.8639 2.60556 26.9306L6.2202 29.0948C8.18468 30.1102 9.3848 28.9169 9.3848 27.7088V12.1145C9.3848 11.8921 9.55624 11.7217 9.77055 11.7217H11.4421C11.6493 11.7217 11.8279 11.8921 11.8279 12.1145V27.7162C11.8279 30.4289 10.3992 31.9854 7.92037 31.9854C7.15601 31.9854 6.55595 31.9854 4.88435 31.1256L1.42687 29.0578C0.569639 28.5463 0.0410156 27.5902 0.0410156 26.56V10.7656C0.0410156 9.74274 0.569639 8.77921 1.42687 8.2678L14.6067 0.366881C15.4425 -0.122294 16.5498 -0.122294 17.3784 0.366881L30.5726 8.27522C31.4298 8.78662 31.9585 9.74274 31.9585 10.773V26.5674C31.9585 27.5902 31.4298 28.5463 30.5726 29.0652L17.3784 36.9661C16.957 37.2181 16.4784 37.3515 15.9926 37.3515ZM26.6437 21.7794C26.6437 18.8221 24.7149 18.0365 20.6645 17.4806C16.5641 16.9173 16.1498 16.6283 16.1498 15.6351C16.1498 14.8124 16.4998 13.7154 19.5358 13.7154C22.2432 13.7154 23.2433 14.3232 23.6576 16.2206C23.6934 16.3985 23.8505 16.5319 24.0291 16.5319H25.7436C25.8507 16.5319 25.9507 16.4874 26.0222 16.4059C26.0936 16.3244 26.1293 16.2132 26.1222 16.102C25.8579 12.8334 23.7648 11.314 19.5358 11.314C15.7711 11.314 13.5281 12.9594 13.5281 15.724C13.5281 18.7184 15.764 19.5485 19.3715 19.9191C23.6934 20.3564 24.0291 21.016 24.0291 21.898C24.0291 23.4248 22.8433 24.0771 20.0644 24.0771C16.5712 24.0771 15.8069 23.1654 15.5497 21.3644C15.5211 21.1717 15.364 21.0308 15.1711 21.0308H13.4638C13.2495 21.0308 13.0852 21.2087 13.0852 21.4237C13.0852 23.7287 14.2924 26.4785 20.0716 26.4785C24.2434 26.4711 26.6437 24.7589 26.6437 21.7794Z" fill="black"/>
</svg>
