<svg width="36" height="20" viewBox="0 0 36 20" fill="none" xmlns="http://www.w3.org/2000/svg">
<path d="M10.515 7.03297H9.099L8.3265 11.1541H9.5835C10.4175 11.1541 11.0385 10.9907 11.4465 10.6654C11.8545 10.3386 12.129 9.79543 12.2715 9.03284C12.4095 8.30137 12.3465 7.78467 12.0855 7.48431C11.823 7.18394 11.301 7.03297 10.515 7.03297ZM18 0C8.0595 0 0 4.39814 0 9.82344C0 15.2487 8.0595 19.6484 18 19.6484C27.9405 19.6484 36 15.2487 36 9.82344C36 4.39814 27.9405 0 18 0ZM13.11 11.5961C12.7185 11.9852 12.2475 12.2777 11.7345 12.4536C11.2305 12.6217 10.587 12.7088 9.807 12.7088H8.0355L7.545 15.325H5.478L7.323 5.47977H11.298C12.4935 5.47977 13.365 5.80504 13.914 6.45714C14.463 7.10768 14.628 8.01656 14.409 9.1838C14.3251 9.64567 14.1707 10.0907 13.9515 10.502C13.737 10.8989 13.4565 11.2646 13.11 11.5961ZM19.146 12.7088L19.9605 8.35273C20.055 7.85782 20.019 7.51855 19.8585 7.33957C19.698 7.15904 19.3545 7.06877 18.828 7.06877H17.19L16.134 12.7104H14.082L15.927 2.86361H17.9775L17.487 5.48133H19.314C20.4645 5.48133 21.2565 5.68988 21.693 6.10541C22.1295 6.52095 22.26 7.19483 22.0875 8.12706L21.2295 12.7088H19.146ZM30.5415 9.1838C30.459 9.64605 30.3045 10.0913 30.084 10.502C29.8695 10.8989 29.589 11.2646 29.2425 11.5961C28.8508 11.984 28.381 12.2769 27.867 12.4536C27.363 12.6217 26.7195 12.7088 25.938 12.7088H24.168L23.6775 15.3266H21.6105L23.4555 5.48133H27.429C28.6245 5.48133 29.496 5.8066 30.045 6.4587C30.594 7.10768 30.7605 8.01656 30.5415 9.1838ZM26.649 7.03297H25.2345L24.4605 11.1541H25.7175C26.553 11.1541 27.174 10.9907 27.5805 10.6654C27.9885 10.3386 28.263 9.79543 28.407 9.03284C28.545 8.30137 28.4805 7.78467 28.2195 7.48431C27.9585 7.18394 27.4335 7.03297 26.649 7.03297Z" fill="black"/>
</svg>
