<svg width="32" height="32" viewBox="0 0 32 32" fill="none" xmlns="http://www.w3.org/2000/svg">
<path d="M18.8123 0.233447L19.9373 0.492832L20.8498 0.830033L21.5873 1.21911L22.1498 1.63413L22.5748 2.07508L22.8873 2.51604L23.0873 2.94402L23.2123 3.3331L23.2623 3.6703L23.2873 3.92969L23.2748 4.09829V11.0239L23.2123 11.8409L23.0498 12.5543L22.7873 13.1508L22.4623 13.6437L22.0873 14.0457L21.6748 14.37L21.2373 14.6164L20.7998 14.7979L20.3873 14.9276L20.0123 15.0184L19.6873 15.0703L19.4248 15.0962H11.9623L11.0998 15.1611L10.3623 15.3426L9.7373 15.628L9.2248 15.9781L8.8123 16.3932L8.4748 16.8471L8.2248 17.314L8.0373 17.7938L7.9123 18.2478L7.8248 18.6628L7.7748 19.0129L7.7498 19.2853V23.2539H4.9623L4.6998 23.215L4.3498 23.1242L3.9498 22.9686L3.5123 22.7351L3.0623 22.3979L2.6123 21.931L2.1748 21.3344L1.7748 20.5693L1.4248 19.6225L1.1623 18.4812L0.987305 17.1194L0.924805 15.5242L0.999805 13.942L1.1998 12.5932L1.4998 11.4648L1.8998 10.544L2.3498 9.80477L2.8498 9.23412L3.3748 8.80613L3.8998 8.49487L4.3998 8.28736L4.8498 8.15767L5.2498 8.09282L5.5498 8.07985H5.7498L5.8248 8.09282H16.0248V7.01637H8.7248L8.7123 3.44983L8.6873 2.96996L8.7498 2.52901L8.8873 2.12696L9.0998 1.76382L9.4123 1.42662L9.7998 1.12833L10.2748 0.868941L10.8248 0.635494L11.4623 0.440955L12.1873 0.285324L12.9873 0.155631L13.8748 0.0778156L14.8373 0.0259385L15.8873 0L17.4748 0.0648464L18.8123 0.233447ZM10.9373 2.80136L10.6498 3.22935L10.5498 3.76109L10.6498 4.29283L10.9373 4.73378L11.3498 5.01911L11.8623 5.13583L12.3748 5.01911L12.7873 4.73378L13.0748 4.29283L13.1748 3.76109L13.0748 3.22935L12.7873 2.80136L12.3748 2.51604L11.8623 2.39931L11.3498 2.51604L10.9373 2.80136ZM27.2998 7.92422L27.6498 8.00204L28.0498 8.15767L28.4873 8.39112L28.9373 8.74129L29.3873 9.19521L29.8248 9.80477L30.2248 10.57L30.5748 11.5167L30.8373 12.658L31.0123 14.0068L31.0748 15.602L30.9998 17.1973L30.7998 18.5461L30.4998 19.6614L30.0998 20.5822L29.6498 21.3215L29.1498 21.9051L28.6248 22.3331L28.0998 22.6443L27.5998 22.8519L27.1498 22.9686L26.7498 23.0334L26.4498 23.0594L26.2498 23.0464H15.9748V24.1099H23.2748L23.2873 27.6894L23.3123 28.1563L23.2498 28.5972L23.1123 28.9993L22.8998 29.3754L22.5873 29.6996L22.1998 30.0109L21.7248 30.2703L21.1748 30.4908L20.5373 30.6853L19.8123 30.8539L19.0123 30.9706L18.1248 31.0614L17.1623 31.1133L16.1123 31.1262L14.5248 31.0744L13.1873 30.8928L12.0623 30.6334L11.1498 30.3092L10.4123 29.9201L9.8498 29.4921L9.4248 29.0512L9.1123 28.6102L8.9123 28.1822L8.7873 27.7931L8.7373 27.4689L8.7123 27.2095L8.7248 27.0409V20.1153L8.7873 19.2853L8.9498 18.585L9.21231 17.9884L9.5373 17.4955L9.9123 17.0805L10.3248 16.7693L10.7623 16.5099L11.1998 16.3283L11.6123 16.1986L11.9873 16.1208L12.3123 16.0689L12.5748 16.043L12.7373 16.03H20.0373L20.8998 15.9652L21.6373 15.7836L22.2623 15.5112L22.7748 15.1481L23.1873 14.7331L23.5248 14.2792L23.7748 13.8123L23.9623 13.3454L24.0873 12.8915L24.1748 12.4764L24.2248 12.1133L24.2498 11.8409V7.87235H26.8623L27.0373 7.88532L27.2998 7.92422ZM19.2123 26.4054L18.9248 26.8334L18.8248 27.3652L18.9248 27.8969L19.2123 28.3249L19.6248 28.6232L20.1373 28.7269L20.6498 28.6232L21.0623 28.3249L21.3498 27.8969L21.4498 27.3652L21.3498 26.8334L21.0623 26.4054L20.6498 26.1071L20.1373 26.0034L19.6248 26.1071L19.2123 26.4054Z" fill="black"/>
</svg>
