<svg width="36" height="34" viewBox="0 0 36 34" fill="none" xmlns="http://www.w3.org/2000/svg">
<path d="M18 13.2867C17.5787 13.2867 17.1614 13.3728 16.7722 13.5401C16.3829 13.7074 16.0292 13.9526 15.7312 14.2617C15.4333 14.5708 15.197 14.9378 15.0357 15.3417C14.8745 15.7456 14.7915 16.1785 14.7915 16.6156C14.7915 17.0528 14.8745 17.4857 15.0357 17.8896C15.197 18.2935 15.4333 18.6604 15.7312 18.9696C16.0292 19.2787 16.3829 19.5239 16.7722 19.6912C17.1614 19.8585 17.5787 19.9446 18 19.9446C18.4213 19.9446 18.8386 19.8585 19.2278 19.6912C19.6171 19.5239 19.9708 19.2787 20.2688 18.9696C20.5667 18.6604 20.803 18.2935 20.9643 17.8896C21.1255 17.4857 21.2085 17.0528 21.2085 16.6156C21.2085 16.1785 21.1255 15.7456 20.9643 15.3417C20.803 14.9378 20.5667 14.5708 20.2688 14.2617C19.9708 13.9526 19.6171 13.7074 19.2278 13.5401C18.8386 13.3728 18.4213 13.2867 18 13.2867ZM9.012 23.2377L8.304 23.051C3.027 21.6674 0 19.319 0 16.6094C0 13.8999 3.027 11.5514 8.304 10.1678L9.012 9.98263L9.2115 10.711C9.74607 12.6217 10.4298 14.484 11.256 16.2795L11.4075 16.611L11.256 16.9425C10.4285 18.7373 9.74465 20.5997 9.2115 22.5109L9.012 23.2377ZM7.9755 11.8689C3.9645 13.0377 1.503 14.8259 1.503 16.6094C1.503 18.3914 3.9645 20.1796 7.9755 21.3499C8.46604 19.7313 9.05831 18.1477 9.7485 16.6094C9.05752 15.0715 8.46523 13.4878 7.9755 11.8689ZM26.988 23.2377L26.7885 22.5078C26.2545 20.5972 25.5702 18.7353 24.7425 16.9409L24.591 16.6094L24.7425 16.2779C25.5699 14.4828 26.2541 12.6204 26.7885 10.7094L26.988 9.98108L27.6975 10.1663C32.973 11.5498 36 13.8983 36 16.6094C36 19.3205 32.973 21.6674 27.6975 23.051L26.988 23.2377ZM26.2515 16.6094C26.9715 18.2264 27.567 19.8154 28.0245 21.3499C32.037 20.1796 34.497 18.3914 34.497 16.6094C34.497 14.8259 32.0355 13.0392 28.0245 11.8689C27.5346 13.4878 26.9423 15.0714 26.2515 16.6094ZM7.965 11.8611L7.7655 11.1343C6.282 5.709 6.732 1.82133 9 0.464225C11.2245 -0.867978 14.796 0.705453 18.5385 4.69117L19.0485 5.23432L18.5385 5.77748C17.2087 7.21178 15.9937 8.75608 14.9055 10.3951L14.703 10.6954L14.3505 10.7265C12.4364 10.8831 10.5376 11.2006 8.673 11.6759L7.965 11.8611ZM10.809 1.54275C10.407 1.54275 10.0515 1.63302 9.7515 1.81199C8.2605 2.70376 7.9965 5.80393 9.024 9.9873C10.6225 9.61835 12.2424 9.35789 13.8735 9.20759C14.8146 7.81917 15.8429 6.49656 16.9515 5.24833C14.6115 2.88429 12.396 1.54275 10.809 1.54275ZM25.1925 33.2324C25.191 33.2324 25.191 33.2324 25.1925 33.2324C23.055 33.2324 20.31 31.5625 17.4615 28.5276L16.9515 27.9845L17.4615 27.4413C18.791 26.0066 20.0055 24.4618 21.093 22.8222L21.2955 22.5218L21.6465 22.4907C23.5616 22.335 25.4614 22.018 27.327 21.5429L28.035 21.3577L28.236 22.0861C29.7165 27.5083 29.268 31.3975 27 32.753C26.4491 33.0762 25.8253 33.2416 25.1925 33.2324ZM19.0485 27.9705C21.3885 30.3345 23.604 31.6761 25.191 31.6761C25.5915 31.6761 25.95 31.5858 26.2485 31.4068C27.7395 30.5151 28.005 27.4133 26.976 23.23C25.3771 23.5994 23.7567 23.8599 22.125 24.0097C21.185 25.399 20.1573 26.7222 19.0485 27.9705ZM28.035 11.8611L27.327 11.6759C25.4616 11.1992 23.5618 10.8817 21.6465 10.7265L21.2955 10.6954L21.093 10.3951C20.006 8.75556 18.7915 7.21121 17.4615 5.77748L16.9515 5.23432L17.4615 4.69117C21.2025 0.70701 24.7725 -0.866422 27 0.464225C29.268 1.82133 29.718 5.709 28.236 11.1327L28.035 11.8611ZM22.125 9.20759C23.838 9.36944 25.4655 9.63246 26.976 9.9873C28.005 5.80393 27.7395 2.70376 26.2485 1.81199C24.7665 0.923337 21.981 2.28511 19.0485 5.24833C20.1566 6.49662 21.1843 7.81923 22.125 9.20759ZM10.809 33.2324C10.1757 33.2419 9.55134 33.0765 9 32.753C6.732 31.3975 6.282 27.5098 7.7655 22.0861L7.9635 21.3577L8.6715 21.5429C10.404 21.9958 12.315 22.3148 14.349 22.4907L14.7015 22.5218L14.9025 22.8222C15.9908 24.4615 17.2058 26.0063 18.5355 27.4413L19.0455 27.9845L18.5355 28.5276C15.6885 31.5625 12.9435 33.2324 10.809 33.2324ZM9.024 23.23C7.995 27.4133 8.2605 30.5151 9.7515 31.4068C11.232 32.283 14.016 30.9321 16.9515 27.9705C15.8433 26.7213 14.8151 25.3982 13.8735 24.0097C12.2423 23.86 10.6223 23.5996 9.024 23.23ZM18 24.2073C16.7655 24.2073 15.4965 24.1513 14.226 24.0424L13.8735 24.0112L13.671 23.7109C12.9524 22.6395 12.2768 21.5377 11.646 20.4084C11.0171 19.2781 10.4336 18.1213 9.897 16.9409L9.7485 16.6094L9.897 16.2779C10.4335 15.0975 11.017 13.9407 11.646 12.8105C12.267 11.6961 12.9495 10.5849 13.671 9.50796L13.8735 9.20759L14.226 9.17646C16.738 8.95547 19.2635 8.95547 21.7755 9.17646L22.1265 9.20759L22.3275 9.50796C23.7663 11.6511 25.0292 13.9157 26.103 16.2779L26.2545 16.6094L26.103 16.9409C25.0318 19.3045 23.7687 21.5693 22.3275 23.7109L22.1265 24.0112L21.7755 24.0424C20.505 24.1513 19.2345 24.2073 18 24.2073ZM14.7045 22.5203C16.9245 22.693 19.0755 22.693 21.297 22.5203C22.5372 20.6391 23.6384 18.6632 24.591 16.6094C23.6401 14.5544 22.5383 12.5783 21.2955 10.6985C19.1017 10.5258 16.8983 10.5258 14.7045 10.6985C13.4611 12.578 12.3594 14.5541 11.409 16.6094C12.3626 18.6629 13.4643 20.6388 14.7045 22.5203Z" fill="black"/>
</svg>
