<svg width="30" height="30" viewBox="0 0 30 30" fill="none" xmlns="http://www.w3.org/2000/svg">
<path d="M20.625 7.5H9.37499C5.23286 7.5 1.875 10.8579 1.875 15V15C1.875 19.1421 5.23286 22.5 9.37499 22.5H20.625C24.7671 22.5 28.125 19.1421 28.125 15C28.125 10.8579 24.7671 7.5 20.625 7.5Z" fill="white"/>
<path d="M9.37499 7.5H20.625C24.7671 7.5 28.125 10.8579 28.125 15V15C28.125 19.1421 24.7671 22.5 20.625 22.5H9.37499C5.23286 22.5 1.875 19.1421 1.875 15V15C1.875 10.8579 5.23286 7.5 9.37499 7.5Z" stroke="black" stroke-width="1.25" stroke-linecap="round" stroke-linejoin="round"/>
<path d="M9.375 18.75C11.4461 18.75 13.125 17.0711 13.125 15C13.125 12.9289 11.4461 11.25 9.375 11.25C7.30393 11.25 5.625 12.9289 5.625 15C5.625 17.0711 7.30393 18.75 9.375 18.75Z" fill="black" stroke="black" stroke-width="1.25" stroke-linecap="round" stroke-linejoin="round"/>
</svg>
