<svg width="30" height="30" viewBox="0 0 30 30" fill="none" xmlns="http://www.w3.org/2000/svg">
<path d="M9.375 23.4375C11.4461 23.4375 13.125 21.7586 13.125 19.6875C13.125 17.6164 11.4461 15.9375 9.375 15.9375C7.30393 15.9375 5.625 17.6164 5.625 19.6875C5.625 21.7586 7.30393 23.4375 9.375 23.4375Z" stroke="black" stroke-width="1.25" stroke-linecap="round" stroke-linejoin="round"/>
<path d="M3.75 26.2498C4.40504 25.3766 5.25435 24.6679 6.23069 24.1798C7.20704 23.6917 8.28361 23.4375 9.37517 23.4375C10.4667 23.4375 11.5433 23.6916 12.5197 24.1796C13.496 24.6677 14.3454 25.3764 15.0005 26.2495" stroke="black" stroke-width="1.25" stroke-linecap="round" stroke-linejoin="round"/>
<path d="M9.375 11.25C11.4461 11.25 13.125 9.57107 13.125 7.5C13.125 5.42893 11.4461 3.75 9.375 3.75C7.30393 3.75 5.625 5.42893 5.625 7.5C5.625 9.57107 7.30393 11.25 9.375 11.25Z" stroke="black" stroke-width="1.25" stroke-linecap="round" stroke-linejoin="round"/>
<path d="M3.75 14.0623C4.40504 13.1891 5.25435 12.4804 6.23069 11.9923C7.20704 11.5042 8.28361 11.25 9.37517 11.25C10.4667 11.25 11.5433 11.5041 12.5197 11.9921C13.496 12.4802 14.3454 13.1889 15.0005 14.062" stroke="black" stroke-width="1.25" stroke-linecap="round" stroke-linejoin="round"/>
<path d="M20.625 23.4375C22.6961 23.4375 24.375 21.7586 24.375 19.6875C24.375 17.6164 22.6961 15.9375 20.625 15.9375C18.5539 15.9375 16.875 17.6164 16.875 19.6875C16.875 21.7586 18.5539 23.4375 20.625 23.4375Z" stroke="black" stroke-width="1.25" stroke-linecap="round" stroke-linejoin="round"/>
<path d="M15 26.2498C15.655 25.3766 16.5043 24.6679 17.4807 24.1798C18.457 23.6917 19.5336 23.4375 20.6252 23.4375C21.7167 23.4375 22.7933 23.6916 23.7697 24.1796C24.746 24.6677 25.5954 25.3764 26.2505 26.2495" stroke="black" stroke-width="1.25" stroke-linecap="round" stroke-linejoin="round"/>
<path d="M20.625 11.25C22.6961 11.25 24.375 9.57107 24.375 7.5C24.375 5.42893 22.6961 3.75 20.625 3.75C18.5539 3.75 16.875 5.42893 16.875 7.5C16.875 9.57107 18.5539 11.25 20.625 11.25Z" stroke="black" stroke-width="1.25" stroke-linecap="round" stroke-linejoin="round"/>
<path d="M15 14.0623C15.655 13.1891 16.5043 12.4804 17.4807 11.9923C18.457 11.5042 19.5336 11.25 20.6252 11.25C21.7167 11.25 22.7933 11.5041 23.7697 11.9921C24.746 12.4802 25.5954 13.1889 26.2505 14.062" stroke="black" stroke-width="1.25" stroke-linecap="round" stroke-linejoin="round"/>
</svg>
