<svg width="586" height="343" viewBox="0 0 586 343" fill="none" xmlns="http://www.w3.org/2000/svg">
<path d="M581.755 151.887C579.292 150.193 576.126 149.346 572.256 149.346H564.884C562.555 149.346 560.293 149.21 558.098 148.956C555.904 148.702 553.96 147.855 552.285 146.415C550.592 144.975 549.235 142.756 548.213 139.74C547.175 136.741 546.655 132.354 546.655 126.611V22.6761C546.655 2.5499 537.089 -7.51318 517.955 -7.51318H462.901C459.031 -7.51318 456.317 -6.34424 454.759 -3.98941C453.2 -1.63458 452.43 0.974374 452.43 3.85438C452.43 6.98851 453.267 9.68217 454.943 11.9015C456.618 14.1208 459.265 15.2389 462.901 15.2389H509.444C514.102 15.2389 517.268 16.2215 518.944 18.1867C520.619 20.1518 521.457 23.7434 521.457 28.9782V123.476C521.457 134.454 523.333 142.637 527.086 147.99C530.839 153.344 535.681 157.071 541.629 159.172C535.681 162.306 530.839 166.626 527.086 172.115C523.333 177.604 521.457 184.533 521.457 192.902V295.244C521.457 300.461 520.737 303.867 519.329 305.442C517.905 307.018 514.738 307.797 509.83 307.797H462.901C459.031 307.797 456.317 308.966 454.759 311.321C453.2 313.676 452.43 316.285 452.43 319.165C452.43 322.299 453.267 324.975 454.943 327.212C456.618 329.431 459.265 330.549 462.901 330.549H515.643C536.318 330.549 546.672 321.265 546.672 302.715V194.087C546.672 188.598 547.191 184.346 548.23 181.348C549.252 178.349 550.609 176.198 552.301 174.876C553.977 173.572 555.92 172.792 558.115 172.521C560.31 172.267 562.572 172.132 564.9 172.132H571.887C575.757 172.132 578.991 171.217 581.588 169.387C584.168 167.557 585.458 164.423 585.458 159.968C585.441 156.275 584.218 153.581 581.755 151.887Z" fill="#2A7FFC"/>
<path d="M461.204 240.319C464.689 235.744 467.47 230.781 469.548 225.41C471.609 220.057 472.648 214.754 472.648 209.536C472.648 202.218 470.704 195.814 466.834 190.325C462.964 184.836 456.748 182.092 448.22 182.092C442.272 182.092 437.162 183.921 432.907 187.581C428.634 191.24 426.507 196.204 426.507 202.489C426.507 208.503 428.701 213.534 433.108 217.583C437.497 221.632 443.83 223.665 452.107 223.665C450.817 228.375 448.036 232.881 443.763 237.201C439.491 241.521 434.381 244.842 428.45 247.197C426.641 247.722 425.149 248.84 423.993 250.534C422.837 252.228 422.888 254.397 424.194 257.006C425.216 258.835 426.775 259.75 428.852 259.75C430.913 259.75 432.99 259.496 435.051 258.971C439.96 257.921 444.685 255.701 449.208 252.296C453.699 248.874 457.703 244.893 461.204 240.319Z" fill="#2A7FFC"/>
<path d="M449.377 107.566C455.325 107.566 460.435 105.346 464.691 100.891C468.963 96.4521 471.091 91.2173 471.091 85.2031C471.091 79.189 468.963 74.0219 464.691 69.7189C460.418 65.3989 455.325 63.2473 449.377 63.2473C443.43 63.2473 438.32 65.3989 434.064 69.7189C429.792 74.0389 427.664 79.189 427.664 85.2031C427.664 91.2173 429.792 96.4521 434.064 100.891C438.32 105.346 443.43 107.566 449.377 107.566Z" fill="#2A7FFC"/>
<path d="M316.677 134.03L302.569 148.515C369.435 215.043 368.547 246.13 362.064 258.734C352.045 278.234 315.102 282.909 285.43 277.403C280.286 276.455 274.473 274.93 268.123 272.948C274.523 243.216 277.304 211.671 278.326 184.633C280.152 136.757 276.818 85.0358 269.999 48.0022C289.2 42.8182 306.49 40.5481 321.267 41.3782C341.121 42.5133 353.586 48.07 358.327 57.9298C367.827 77.6663 348.292 113.311 339.965 125.373L348.208 131.201L356.434 137.028C360.187 131.607 392.707 83.0198 376.422 49.0695C368.263 32.0605 350.084 22.6581 322.39 21.0826C304.446 20.0661 285.028 22.997 265.627 28.1979C265.007 25.86 264.37 23.6069 263.7 21.4892C252.123 -15.9679 224.411 -56 190.886 -56C190.652 -56 190.417 -56 190.182 -56C156.138 -55.424 127.991 -15.6121 106.562 62.3345L125.93 67.7726C150.542 -21.7109 176.963 -35.4503 190.518 -35.6705C190.635 -35.6705 190.769 -35.6705 190.886 -35.6705C213.002 -35.6705 235 -3.19417 244.55 27.5711C245.186 29.6041 245.79 31.7725 246.393 34.0765C210.505 46.2573 176.461 64.3675 154.161 77.48C119.664 97.7586 86.5746 121.493 61.6444 143.28C46.4484 126.948 35.2733 111.057 28.7224 96.1492C20.6469 77.768 19.8427 64.0117 26.3601 55.2531C39.3949 37.702 79.6384 38.9895 94.0637 40.9716L95.4208 30.9085L96.7947 20.8454C90.2941 19.9475 32.7099 12.8831 10.2929 43.0384C-0.932447 58.15 -0.915693 78.8014 10.3431 104.433C18.4019 122.781 31.5539 140.552 46.8337 156.968C39.5121 164.151 33.3466 170.962 28.6219 177.162C6.43939 206.318 -8.63937 248.163 7.72946 275.845C17.8155 292.888 37.2168 301.46 65.5984 301.46C75.031 301.46 85.4521 300.511 96.8449 298.614L93.5779 278.555C57.3553 284.587 33.6314 280.046 24.9863 265.409C14.029 246.909 26.5612 213.23 44.5719 189.529C48.794 183.989 54.3899 177.84 61.0915 171.284C87.094 196.035 116.313 216.703 136.82 229.985C173.093 253.482 212.164 273.693 244.181 286.027C238.083 307.915 229.823 326.533 218.983 339.51C206.535 354.384 195.125 360.636 185.039 358.078C158.165 351.267 134.944 286.281 126.617 246.909L106.948 251.145C109.411 262.834 132.397 365.667 180.13 377.78C183.33 378.593 186.547 379 189.747 379C204.708 379 219.653 370.174 234.33 352.639C247.348 337.087 256.646 315.962 263.264 292.684C269.999 294.768 276.249 296.361 281.845 297.394C290.909 299.071 300.375 299.986 309.757 299.986C339.462 299.986 368.246 290.855 379.94 268.103C395.974 236.863 374.696 191.749 316.677 134.03ZM248.973 266.104C218.765 254.194 181.571 234.847 147.66 212.874C119.513 194.629 95.3706 175.976 75.9692 157.663C99.8272 136.995 131.694 114.209 164.28 95.048C195.142 76.904 224.361 63.0799 250.665 53.9825C260.165 107.568 263.13 197.644 248.973 266.104Z" fill="#2A7FFC"/>
<path d="M194.736 113.77C169.42 113.77 148.812 134.607 148.812 160.206C148.812 185.804 169.42 206.642 194.736 206.642C220.051 206.642 240.659 185.804 240.659 160.206C240.659 134.591 220.051 113.77 194.736 113.77ZM194.736 186.295C180.495 186.295 168.918 174.589 168.918 160.189C168.918 145.789 180.495 134.082 194.736 134.082C208.977 134.082 220.554 145.789 220.554 160.189C220.554 174.589 208.977 186.295 194.736 186.295Z" fill="#2A7FFC"/>
</svg>
