<svg width="585" height="307" viewBox="0 0 585 307" fill="none" xmlns="http://www.w3.org/2000/svg">
<path d="M581.115 127.887C578.652 126.193 575.485 125.346 571.615 125.346H564.243C561.914 125.346 559.652 125.21 557.458 124.956C555.263 124.702 553.319 123.855 551.644 122.415C549.952 120.975 548.595 118.756 547.573 115.74C546.534 112.741 546.015 108.354 546.015 102.611V-1.32392C546.015 -21.4501 536.448 -31.5132 517.315 -31.5132H462.26C458.39 -31.5132 455.676 -30.3442 454.118 -27.9894C452.56 -25.6346 451.789 -23.0256 451.789 -20.1456C451.789 -17.0115 452.627 -14.3178 454.302 -12.0985C455.978 -9.87923 458.625 -8.76111 462.26 -8.76111H508.804C513.461 -8.76111 516.628 -7.77852 518.303 -5.81334C519.979 -3.84815 520.816 -0.256615 520.816 4.97823V99.4764C520.816 110.454 522.693 118.637 526.446 123.99C530.199 129.344 535.041 133.071 540.988 135.172C535.041 138.306 530.199 142.626 526.446 148.115C522.693 153.604 520.816 160.533 520.816 168.902V271.244C520.816 276.461 520.096 279.867 518.689 281.442C517.264 283.018 514.098 283.797 509.189 283.797H462.26C458.39 283.797 455.676 284.966 454.118 287.321C452.56 289.676 451.789 292.285 451.789 295.165C451.789 298.299 452.627 300.975 454.302 303.212C455.978 305.431 458.625 306.549 462.26 306.549H515.003C535.677 306.549 546.031 297.265 546.031 278.715V170.087C546.031 164.598 546.551 160.346 547.589 157.348C548.611 154.349 549.969 152.198 551.661 150.876C553.336 149.572 555.28 148.792 557.474 148.521C559.669 148.267 561.931 148.132 564.26 148.132H571.246C575.117 148.132 578.35 147.217 580.947 145.387C583.527 143.557 584.817 140.423 584.817 135.968C584.801 132.275 583.577 129.581 581.115 127.887Z" fill="#2A7FFC"/>
<path d="M460.564 216.319C464.049 211.744 466.83 206.781 468.907 201.41C470.968 196.057 472.007 190.754 472.007 185.536C472.007 178.218 470.063 171.814 466.193 166.325C462.323 160.836 456.107 158.092 447.579 158.092C441.632 158.092 436.522 159.921 432.266 163.581C427.994 167.24 425.866 172.204 425.866 178.489C425.866 184.503 428.061 189.534 432.467 193.583C436.857 197.632 443.19 199.665 451.466 199.665C450.176 204.375 447.395 208.881 443.123 213.201C438.85 217.521 433.74 220.842 427.809 223.197C426 223.722 424.509 224.84 423.353 226.534C422.197 228.228 422.247 230.397 423.554 233.006C424.576 234.835 426.134 235.75 428.212 235.75C430.272 235.75 432.35 235.496 434.411 234.971C439.32 233.921 444.044 231.701 448.568 228.296C453.058 224.874 457.062 220.893 460.564 216.319Z" fill="#2A7FFC"/>
<path d="M448.737 83.5656C454.685 83.5656 459.795 81.3463 464.05 76.8907C468.322 72.4521 470.45 67.2173 470.45 61.2031C470.45 55.189 468.322 50.0219 464.05 45.7189C459.778 41.3989 454.685 39.2473 448.737 39.2473C442.789 39.2473 437.679 41.3989 433.424 45.7189C429.151 50.0389 427.023 55.189 427.023 61.2031C427.023 67.2173 429.151 72.4521 433.424 76.8907C437.679 81.3463 442.789 83.5656 448.737 83.5656Z" fill="#2A7FFC"/>
<path d="M316.036 110.03L301.929 124.515C368.795 191.043 367.907 222.13 361.423 234.734C351.404 254.234 314.461 258.909 284.789 253.403C279.646 252.455 273.832 250.93 267.482 248.948C273.882 219.216 276.664 187.671 277.686 160.633C279.512 112.757 276.178 61.0358 269.359 24.0022C288.559 18.8182 305.849 16.5481 320.627 17.3782C340.48 18.5133 352.945 24.07 357.687 33.9298C367.186 53.6663 347.651 89.3107 339.324 101.373L347.567 107.201L355.794 113.028C359.546 107.607 392.066 59.0198 375.781 25.0695C367.622 8.06053 349.444 -1.34186 321.749 -2.91739C303.805 -3.93387 284.387 -1.00303 264.986 4.19793C264.366 1.86004 263.729 -0.393143 263.059 -2.5108C251.482 -39.9679 223.771 -80 190.246 -80C190.011 -80 189.776 -80 189.542 -80C155.497 -79.424 127.35 -39.6121 105.922 38.3345L125.29 43.7726C149.901 -45.7109 176.323 -59.4503 189.877 -59.6705C189.994 -59.6705 190.128 -59.6705 190.246 -59.6705C212.361 -59.6705 234.359 -27.1942 243.909 3.57111C244.546 5.60405 245.149 7.77252 245.752 10.0765C209.865 22.2573 175.82 40.3675 153.52 53.48C119.023 73.7586 85.934 97.4933 61.0038 119.28C45.8077 102.948 34.6327 87.0575 28.0818 72.1492C20.0063 53.768 19.2021 40.0117 25.7195 31.2531C38.7542 13.702 78.9978 14.9895 93.4231 16.9716L94.7802 6.90852L96.154 -3.15456C89.6534 -4.05245 32.0693 -11.117 9.65223 19.0384C-1.57307 34.15 -1.55632 54.8014 9.70249 80.4335C17.7612 98.7808 30.9133 116.552 46.1931 132.968C38.8715 140.151 32.706 146.962 27.9813 153.162C5.79877 182.318 -9.27999 224.163 7.08884 251.845C17.1749 268.888 36.5762 277.46 64.9578 277.46C74.3904 277.46 84.8115 276.511 96.2043 274.614L92.9372 254.555C56.7147 260.587 32.9908 256.046 24.3456 241.409C13.3884 222.909 25.9205 189.23 43.9313 165.529C48.1533 159.989 53.7492 153.84 60.4509 147.284C86.4534 172.035 115.673 192.703 136.18 205.985C172.453 229.482 211.523 249.693 243.541 262.027C237.442 283.915 229.182 302.533 218.342 315.51C205.894 330.384 194.484 336.636 184.398 334.078C157.525 327.267 134.303 262.281 125.976 222.909L106.307 227.145C108.77 238.834 131.757 341.667 179.489 353.78C182.689 354.593 185.906 355 189.106 355C204.068 355 219.012 346.174 233.689 328.639C246.707 313.087 256.006 291.962 262.624 268.684C269.359 270.768 275.608 272.361 281.204 273.394C290.268 275.071 299.734 275.986 309.116 275.986C338.822 275.986 367.605 266.855 379.3 244.103C395.333 212.863 374.056 167.749 316.036 110.03ZM248.332 242.104C218.124 230.194 180.93 210.847 147.02 188.874C118.873 170.629 94.7299 151.976 75.3286 133.663C99.1866 112.995 131.053 90.2086 163.64 71.048C194.501 52.904 223.72 39.0799 250.024 29.9825C259.524 83.5676 262.49 173.644 248.332 242.104Z" fill="#2A7FFC"/>
<path d="M194.095 89.7698C168.78 89.7698 148.172 110.607 148.172 136.206C148.172 161.804 168.78 182.642 194.095 182.642C219.411 182.642 240.018 161.804 240.018 136.206C240.018 110.591 219.411 89.7698 194.095 89.7698ZM194.095 162.295C179.854 162.295 168.277 150.589 168.277 136.189C168.277 121.789 179.854 110.082 194.095 110.082C208.336 110.082 219.913 121.789 219.913 136.189C219.913 150.589 208.336 162.295 194.095 162.295Z" fill="#2A7FFC"/>
</svg>
