<svg width="439" height="280" viewBox="0 0 439 280" fill="none" xmlns="http://www.w3.org/2000/svg">
<path d="M346.739 123.21C345.269 122.21 343.379 121.71 341.069 121.71H336.669C335.279 121.71 333.929 121.63 332.619 121.48C331.309 121.33 330.149 120.83 329.149 119.98C328.139 119.13 327.329 117.82 326.719 116.04C326.099 114.27 325.789 111.68 325.789 108.29V46.9401C325.789 35.0601 320.079 29.1201 308.659 29.1201H275.799C273.489 29.1201 271.869 29.8101 270.939 31.2001C270.009 32.5901 269.549 34.1301 269.549 35.8301C269.549 37.6801 270.049 39.2701 271.049 40.5801C272.049 41.8901 273.629 42.5501 275.799 42.5501H303.579C306.359 42.5501 308.249 43.1301 309.249 44.2901C310.249 45.4501 310.749 47.5701 310.749 50.6601V106.44C310.749 112.92 311.869 117.75 314.109 120.91C316.349 124.07 319.239 126.27 322.789 127.51C319.239 129.36 316.349 131.91 314.109 135.15C311.869 138.39 310.749 142.48 310.749 147.42V207.83C310.749 210.91 310.319 212.92 309.479 213.85C308.629 214.78 306.739 215.24 303.809 215.24H275.799C273.489 215.24 271.869 215.93 270.939 217.32C270.009 218.71 269.549 220.25 269.549 221.95C269.549 223.8 270.049 225.38 271.049 226.7C272.049 228.01 273.629 228.67 275.799 228.67H307.279C319.619 228.67 325.799 223.19 325.799 212.24V148.12C325.799 144.88 326.109 142.37 326.729 140.6C327.339 138.83 328.149 137.56 329.159 136.78C330.159 136.01 331.319 135.55 332.629 135.39C333.939 135.24 335.289 135.16 336.679 135.16H340.849C343.159 135.16 345.089 134.62 346.639 133.54C348.179 132.46 348.949 130.61 348.949 127.98C348.939 125.8 348.209 124.21 346.739 123.21Z" fill="#0D6EFD"/>
<path d="M267.73 97.0497C271.28 97.0497 274.33 95.7397 276.87 93.1096C279.42 90.4897 280.69 87.3996 280.69 83.8496C280.69 80.2996 279.42 77.2496 276.87 74.7096C274.32 72.1596 271.28 70.8896 267.73 70.8896C264.18 70.8896 261.13 72.1596 258.59 74.7096C256.04 77.2596 254.77 80.2996 254.77 83.8496C254.77 87.3996 256.04 90.4897 258.59 93.1096C261.13 95.7397 264.18 97.0497 267.73 97.0497Z" fill="#0D6EFD"/>
<path d="M255.459 186.86C256.689 186.86 257.929 186.71 259.159 186.4C262.089 185.78 264.909 184.47 267.609 182.46C270.309 180.46 272.699 178.1 274.789 175.4C276.869 172.7 278.529 169.77 279.769 166.6C280.999 163.44 281.619 160.31 281.619 157.23C281.619 152.91 280.459 149.13 278.149 145.89C275.839 142.65 272.129 141.03 267.039 141.03C263.489 141.03 260.439 142.11 257.899 144.27C255.349 146.43 254.079 149.36 254.079 153.07C254.079 156.62 255.389 159.59 258.019 161.98C260.639 164.37 264.419 165.57 269.359 165.57C268.589 168.35 266.929 171.01 264.379 173.56C261.829 176.11 258.779 178.07 255.239 179.46C254.159 179.77 253.269 180.43 252.579 181.43C251.889 182.43 251.919 183.71 252.699 185.25C253.299 186.32 254.219 186.86 255.459 186.86Z" fill="#0D6EFD"/>
<path d="M226.259 191.81C235.849 173.37 223.149 146.74 188.519 112.66L180.099 121.21C220.009 160.48 219.479 178.83 215.609 186.27C209.629 197.78 187.579 200.54 169.869 197.29C166.799 196.73 163.329 195.83 159.539 194.66C163.359 177.11 165.019 158.49 165.629 142.53C166.719 114.27 164.729 83.74 160.659 61.88C172.119 58.82 182.439 57.48 191.259 57.97C203.109 58.64 210.549 61.92 213.379 67.74C219.049 79.39 207.389 100.43 202.419 107.55L207.339 110.99L212.249 114.43C214.489 111.23 233.899 82.55 224.179 62.51C219.309 52.47 208.459 46.92 191.929 45.99C181.219 45.39 169.629 47.12 158.049 50.19C157.679 48.81 157.299 47.48 156.899 46.23C149.989 24.13 133.449 0.5 113.439 0.5C113.299 0.5 113.159 0.5 113.019 0.5C92.6992 0.84 75.8992 24.34 63.1092 70.35L74.6692 73.56C89.3592 20.74 105.129 12.63 113.219 12.5C113.289 12.5 113.369 12.5 113.439 12.5C126.639 12.5 139.769 31.67 145.469 49.83C145.849 51.03 146.209 52.31 146.569 53.67C125.149 60.86 104.829 71.55 91.5192 79.29C70.9292 91.26 51.1792 105.27 36.2992 118.13C27.2292 108.49 20.5592 99.11 16.6492 90.31C11.8292 79.46 11.3492 71.34 15.2392 66.17C23.0192 55.81 47.0392 56.57 55.6492 57.74L56.4592 51.8L57.2792 45.86C53.3992 45.33 19.0292 41.16 5.64917 58.96C-1.05083 67.88 -1.04083 80.07 5.67917 95.2C10.4892 106.03 18.3392 116.52 27.4592 126.21C23.0892 130.45 19.4092 134.47 16.5892 138.13C3.34917 155.34 -5.65083 180.04 4.11917 196.38C10.1392 206.44 21.7192 211.5 38.6592 211.5C44.2892 211.5 50.5092 210.94 57.3092 209.82L55.3592 197.98C33.7392 201.54 19.5792 198.86 14.4192 190.22C7.87917 179.3 15.3592 159.42 26.1092 145.43C28.6192 142.16 31.9692 138.53 35.9692 134.66C51.4892 149.27 68.9292 161.47 81.1692 169.31C102.819 183.18 126.139 195.11 145.249 202.39C141.609 215.31 136.679 226.3 130.209 233.96C122.779 242.74 115.969 246.43 109.949 244.92C93.9092 240.9 80.0492 202.54 75.0792 179.3L63.3392 181.8C64.8092 188.7 78.5292 249.4 107.019 256.55C108.929 257.03 110.849 257.27 112.759 257.27C121.689 257.27 130.609 252.06 139.369 241.71C147.139 232.53 152.689 220.06 156.639 206.32C160.659 207.55 164.389 208.49 167.729 209.1C173.139 210.09 178.789 210.63 184.389 210.63C202.109 210.63 219.279 205.25 226.259 191.81ZM148.109 190.63C130.079 183.6 107.879 172.18 87.6392 159.21C70.8392 148.44 56.4292 137.43 44.8492 126.62C59.0892 114.42 78.1092 100.97 97.5592 89.66C115.979 78.95 133.419 70.79 149.119 65.42C154.789 97.05 156.559 150.22 148.109 190.63Z" fill="#0D6EFD"/>
<path d="M115.74 100.71C100.63 100.71 88.3301 113.01 88.3301 128.12C88.3301 143.23 100.63 155.53 115.74 155.53C130.85 155.53 143.15 143.23 143.15 128.12C143.15 113 130.85 100.71 115.74 100.71ZM115.74 143.52C107.24 143.52 100.33 136.61 100.33 128.11C100.33 119.61 107.24 112.7 115.74 112.7C124.24 112.7 131.15 119.61 131.15 128.11C131.15 136.61 124.24 143.52 115.74 143.52Z" fill="#0D6EFD"/>
<path d="M182.369 251.02C174.909 251.03 171.129 254.24 171.149 264.35C171.159 274.47 174.949 277.66 182.409 277.65C183.869 277.65 185.189 277.54 186.369 277.24L188.089 280L193.479 279.99L190.479 275.14C192.579 273.12 193.649 269.69 193.639 264.32C193.609 254.2 189.829 251.01 182.369 251.02ZM187.639 270.62L185.919 267.79L180.529 267.8L183.859 273.2C183.429 273.27 182.929 273.28 182.429 273.28C178.289 273.29 176.329 272.04 176.319 264.35C176.309 256.66 178.269 255.41 182.409 255.4C186.549 255.39 188.509 256.64 188.529 264.33C188.529 267.27 188.249 269.26 187.639 270.62Z" fill="#0D6EFD"/>
<path d="M211.739 251.16L211.759 268.27C211.759 271.51 209.839 273.13 206.559 273.13C203.279 273.14 201.349 271.52 201.339 268.28L201.319 251.17L196.289 251.18L196.309 268.25C196.319 274.06 200.459 277.59 206.569 277.58C212.669 277.57 216.809 274.03 216.799 268.22L216.779 251.15L211.739 251.16Z" fill="#0D6EFD"/>
<path d="M226.588 251.32L218.238 277.08L223.488 277.07L225.588 270.26L234.688 270.25L236.768 277.05L242.018 277.04L233.598 251.3L226.588 251.32ZM226.858 266.15L229.988 256.18H230.198L233.428 266.14L226.858 266.15Z" fill="#0D6EFD"/>
<path d="M259.348 251.09L259.368 265.55L259.448 269.01H259.378L257.948 266L250.148 253.39C249.038 251.52 248.258 251.11 246.108 251.11H243.398L243.438 277.05L248.078 277.04L248.058 262.07L247.978 258.72H248.048L249.478 261.73L257.528 274.74C258.638 276.61 259.418 277.02 261.568 277.01H264.068L264.028 251.07L259.348 251.09Z" fill="#0D6EFD"/>
<path d="M285.72 251.05L266.02 251.08L266.03 255.42L273.27 255.41L273.31 277.01L278.55 277L278.52 255.4L285.73 255.39L285.72 251.05Z" fill="#0D6EFD"/>
<path d="M303.139 251.03L303.159 268.14C303.159 271.38 301.239 273 297.959 273C294.679 273 292.749 271.39 292.739 268.15L292.719 251.04L287.689 251.05L287.709 268.12C287.719 273.93 291.859 277.46 297.969 277.45C304.069 277.44 308.209 273.9 308.199 268.09L308.179 251.02L303.139 251.03Z" fill="#0D6EFD"/>
<path d="M331.009 250.99L325.569 265.71L324.929 268.43H324.859L324.209 265.71L319.549 253.32C318.869 251.44 317.979 251 315.839 251.01L311.559 251.02L311.599 276.95L316.559 276.94L316.529 257.41L317.779 260.76L322.549 274.22L327.259 274.21L331.989 260.74L333.229 257.39L333.259 276.92L338.219 276.91L338.179 250.97L331.009 250.99Z" fill="#0D6EFD"/>
<path d="M360.659 272.76C356.129 272.77 354.769 270.53 354.759 264.01C354.749 257.5 356.099 255.25 360.639 255.25C362.889 255.25 366.309 255.76 368.779 256.64L369.589 252.26C367.059 251.42 362.659 250.8 359.919 250.8C352.389 250.81 349.609 255.23 349.629 264.02C349.639 272.81 352.429 277.22 359.959 277.21C362.709 277.21 367.269 276.57 369.809 275.72L368.979 271.34C366.509 272.23 362.909 272.76 360.659 272.76Z" fill="#0D6EFD"/>
<path d="M382.619 250.73C375.159 250.74 371.379 253.95 371.399 264.06C371.409 274.18 375.199 277.37 382.659 277.36C390.119 277.35 393.899 274.14 393.879 264.03C393.859 253.91 390.069 250.72 382.619 250.73ZM382.679 272.98C378.539 272.99 376.579 271.74 376.569 264.05C376.559 256.36 378.519 255.11 382.659 255.1C386.799 255.09 388.759 256.34 388.779 264.03C388.779 271.72 386.819 272.98 382.679 272.98Z" fill="#0D6EFD"/>
<path d="M406.779 250.88L403.179 250.89C398.149 250.9 396.719 252.59 396.729 256.9L396.759 276.84L406.819 276.83C413.989 276.82 417.339 272.73 417.329 266.37L417.319 261.33C417.309 254.94 413.949 250.87 406.779 250.88ZM406.839 272.54L401.769 272.55L401.749 257.43C401.749 255.7 402.249 255.15 403.849 255.15H406.809C410.339 255.14 412.269 256.61 412.279 261.47L412.289 266.22C412.299 271.06 410.379 272.54 406.839 272.54Z" fill="#0D6EFD"/>
<path d="M438.75 272.5L425.08 272.52L425.07 265.64L437.81 265.62L437.8 261.35L425.06 261.37L425.05 257.4C425.05 255.67 425.55 255.12 427.15 255.12L438.28 255.1L438.27 250.83L426.46 250.85C421.43 250.86 420 252.55 420.01 256.86L420.04 276.8L438.74 276.77L438.75 272.5Z" fill="#0D6EFD"/>
</svg>
