<svg width="657" height="444" viewBox="0 0 657 444" fill="none" xmlns="http://www.w3.org/2000/svg">
<path d="M654.224 151.546C652.408 150.311 650.074 149.693 647.221 149.693H641.787C640.071 149.693 638.403 149.594 636.785 149.409C635.168 149.224 633.735 148.606 632.5 147.557C631.253 146.507 630.252 144.889 629.499 142.691C628.733 140.505 628.35 137.306 628.35 133.12V57.353C628.35 42.6813 621.299 35.3455 607.195 35.3455H566.613C563.76 35.3455 561.76 36.1976 560.611 37.9142C559.463 39.6309 558.895 41.5328 558.895 43.6323C558.895 45.917 559.512 47.8806 560.747 49.4985C561.982 51.1163 563.933 51.9314 566.613 51.9314H600.921C604.355 51.9314 606.689 52.6477 607.924 54.0803C609.159 55.5129 609.776 58.131 609.776 61.9472V130.835C609.776 138.838 611.159 144.803 613.926 148.705C616.692 152.608 620.261 155.325 624.645 156.856C620.261 159.141 616.692 162.29 613.926 166.292C611.159 170.293 609.776 175.344 609.776 181.445V256.051C609.776 259.855 609.245 262.337 608.208 263.485C607.158 264.634 604.824 265.202 601.205 265.202H566.613C563.76 265.202 561.76 266.054 560.611 267.771C559.463 269.487 558.895 271.389 558.895 273.489C558.895 275.774 559.512 277.725 560.747 279.355C561.982 280.973 563.933 281.788 566.613 281.788H605.491C620.731 281.788 628.363 275.02 628.363 261.497V182.309C628.363 178.308 628.746 175.208 629.511 173.022C630.265 170.836 631.265 169.268 632.512 168.305C633.747 167.354 635.18 166.786 636.798 166.588C638.416 166.403 640.083 166.304 641.799 166.304H646.949C649.802 166.304 652.186 165.637 654.1 164.303C656.002 162.969 656.953 160.685 656.953 157.437C656.941 154.744 656.039 152.781 654.224 151.546Z" fill="#C2DBFE"/>
<path d="M556.642 119.238C561.026 119.238 564.793 117.62 567.93 114.372C571.079 111.137 572.648 107.321 572.648 102.936C572.648 98.5522 571.079 94.7855 567.93 91.6486C564.781 88.4993 561.026 86.9309 556.642 86.9309C552.258 86.9309 548.491 88.4993 545.354 91.6486C542.205 94.7978 540.637 98.5522 540.637 102.936C540.637 107.321 542.205 111.137 545.354 114.372C548.491 117.62 552.258 119.238 556.642 119.238Z" fill="#C2DBFE"/>
<path d="M541.489 230.153C543.009 230.153 544.54 229.968 546.059 229.585C549.677 228.819 553.16 227.201 556.495 224.719C559.829 222.249 562.781 219.334 565.362 216C567.931 212.665 569.981 209.047 571.512 205.132C573.031 201.229 573.797 197.364 573.797 193.56C573.797 188.225 572.364 183.557 569.511 179.555C566.659 175.554 562.077 173.553 555.791 173.553C551.406 173.553 547.64 174.887 544.503 177.555C541.354 180.222 539.785 183.841 539.785 188.423C539.785 192.807 541.403 196.475 544.651 199.426C547.887 202.378 552.555 203.86 558.656 203.86C557.705 207.293 555.655 210.578 552.506 213.727C549.356 216.877 545.59 219.297 541.218 221.014C539.884 221.397 538.785 222.212 537.933 223.447C537.081 224.682 537.118 226.263 538.081 228.165C538.822 229.486 539.958 230.153 541.489 230.153Z" fill="#C2DBFE"/>
<path d="M365.244 317.121C376.273 317.121 387.289 310.687 398.107 297.905C407.703 286.567 414.557 271.167 419.436 254.198C424.4 255.717 429.007 256.878 433.132 257.632C439.813 258.854 446.791 259.521 453.707 259.521C475.603 259.521 496.82 252.864 505.44 236.279C517.284 213.505 501.6 180.617 458.832 138.529L448.433 149.088C497.722 197.586 497.067 220.248 492.288 229.437C484.903 243.651 457.671 247.06 435.799 243.046C432.008 242.355 427.722 241.243 423.042 239.798C427.76 218.124 429.81 195.129 430.563 175.418C431.909 140.517 429.451 102.813 424.425 75.8161C438.578 72.037 451.323 70.3821 462.216 70.9873C476.85 71.8147 486.039 75.8655 489.534 83.0532C496.536 97.4408 482.136 123.425 475.998 132.218L482.074 136.467L488.138 140.715C490.905 136.763 514.876 101.343 502.872 76.5942C496.857 64.1948 483.458 57.3406 463.043 56.1921C449.816 55.4511 435.503 57.5876 421.202 61.3791C420.745 59.6748 420.275 58.0322 419.781 56.4885C411.235 29.1828 390.809 0 366.096 0C365.924 0 365.751 0 365.578 0C340.483 0.419897 319.735 29.4422 303.939 86.2641L318.216 90.2285C336.358 24.9962 355.834 14.9804 365.825 14.8199C365.911 14.8199 366.01 14.8199 366.096 14.8199C382.398 14.8199 398.614 38.4947 405.653 60.9221C406.122 62.4041 406.567 63.9849 407.012 65.6645C380.558 74.5441 355.463 87.7461 339.025 97.305C313.597 112.088 289.206 129.39 270.829 145.272C259.628 133.367 251.39 121.782 246.562 110.915C240.609 97.5149 240.016 87.4868 244.82 81.1019C254.428 68.3074 284.093 69.246 294.726 70.6909L295.727 63.355L296.739 56.0192C291.948 55.3647 249.501 50.2147 232.977 72.1976C224.702 83.2137 224.715 98.2682 233.014 116.954C238.954 130.329 248.649 143.284 259.912 155.251C254.515 160.487 249.97 165.452 246.487 169.972C230.136 191.226 219.021 221.73 231.087 241.91C238.522 254.334 252.823 260.583 273.744 260.583C280.697 260.583 288.378 259.892 296.776 258.508L294.368 243.886C267.668 248.283 250.18 244.973 243.808 234.303C235.731 220.816 244.968 196.265 258.245 178.987C261.344 174.949 265.482 170.466 270.422 165.686C289.589 183.73 311.127 198.797 326.243 208.479C352.981 225.608 381.781 240.342 405.381 249.332C400.886 265.288 394.798 278.861 386.807 288.321C377.631 299.164 369.221 303.721 361.786 301.857C341.977 296.892 324.86 249.518 318.722 220.816L304.223 223.904C306.039 232.425 322.983 307.389 358.168 316.219C360.514 316.825 362.885 317.121 365.244 317.121ZM334.234 196.005C313.486 182.705 295.69 169.107 281.388 155.757C298.975 140.69 322.464 124.08 346.485 110.112C369.233 96.8851 390.772 86.8075 410.161 80.1756C417.163 119.226 419.349 184.903 408.914 234.809C386.647 226.127 359.23 212.023 334.234 196.005Z" fill="#C2DBFE"/>
<path d="M368.937 123.758C350.276 123.758 335.086 138.949 335.086 157.609C335.086 176.27 350.276 191.461 368.937 191.461C387.598 191.461 402.788 176.27 402.788 157.609C402.788 138.936 387.598 123.758 368.937 123.758ZM368.937 176.628C358.44 176.628 349.906 168.094 349.906 157.597C349.906 147.1 358.44 138.566 368.937 138.566C379.434 138.566 387.968 147.1 387.968 157.597C387.968 168.094 379.434 176.628 368.937 176.628Z" fill="#C2DBFE"/>
<path d="M27.4688 372.353C9.21182 372.374 -0.0414481 380.237 0.000139559 405.013C0.0417273 429.79 9.31578 437.611 27.552 437.591C31.1285 437.591 34.3724 437.32 37.2419 436.592L41.4423 443.353L54.6256 443.332L47.2646 431.454C52.4006 426.503 55.0207 418.119 54.9999 404.951C54.9999 380.154 45.7258 372.332 27.4688 372.353ZM40.3818 420.366L36.1814 413.439L22.9981 413.459L31.1493 426.69C30.1096 426.877 28.8828 426.877 27.656 426.877C17.5294 426.898 12.7052 423.84 12.6844 405.013C12.6636 386.187 17.4462 383.108 27.5936 383.108C37.7202 383.087 42.5444 386.145 42.5652 404.972C42.5444 412.149 41.8582 417.017 40.3818 420.366Z" fill="#C2DBFE"/>
<path d="M99.6553 373.394L99.7175 414.826C99.7382 422.664 95.0364 426.594 87.0414 426.594C79.0464 426.614 74.3239 422.685 74.3239 414.847L74.2618 373.415L62 373.435L62.0621 414.765C62.0828 428.836 72.1905 437.374 87.0621 437.353C101.934 437.332 112.021 428.754 112 414.682L111.938 373.353L99.6553 373.394Z" fill="#C2DBFE"/>
<path d="M136.369 373.395L116 436.353L128.806 436.332L133.924 419.684L156.117 419.643L161.194 436.27L174 436.249L153.444 373.353L136.369 373.395ZM137.033 409.617L144.658 385.247H145.176L153.05 409.596L137.033 409.617Z" fill="#C2DBFE"/>
<path d="M216.626 372.353L216.667 408.009L216.852 416.535H216.688L213.212 409.098L194.331 378.009C191.636 373.38 189.744 372.395 184.561 372.395H178L178.082 436.353L189.312 436.332L189.251 399.419L189.065 391.165H189.23L192.706 398.603L212.183 430.697C214.878 435.326 216.77 436.311 221.953 436.311H228L227.918 372.353H216.626Z" fill="#C2DBFE"/>
<path d="M281.979 372.353L233 372.437L233.021 383.142L251.037 383.1L251.122 436.353H264.153L264.069 383.1L282 383.058L281.979 372.353Z" fill="#C2DBFE"/>
<path d="M324.408 372.395L324.472 414.475C324.493 422.435 319.697 426.426 311.542 426.426C303.387 426.426 298.57 422.456 298.57 414.495L298.507 372.416L286 372.437L286.063 414.412C286.085 428.703 296.394 437.374 311.563 437.353C326.732 437.332 337.021 428.64 337 414.328L336.937 372.353L324.408 372.395Z" fill="#C2DBFE"/>
<path d="M392.393 372.374L379.136 408.632L377.583 415.347H377.417L375.843 408.652L364.492 378.148C362.835 373.525 360.66 372.437 355.44 372.458L345 372.479L345.083 436.353L357.18 436.332L357.118 388.212L360.183 396.455L371.804 429.595L383.3 429.574L394.817 396.392L397.841 388.149L397.903 436.248L410 436.227L409.917 372.353L392.393 372.374Z" fill="#C2DBFE"/>
<path d="M465.368 426.419C454.147 426.44 450.758 420.92 450.737 404.884C450.716 388.87 454.063 383.329 465.305 383.308C470.884 383.308 479.368 384.563 485.474 386.716L487.495 375.949C481.221 373.879 470.337 372.353 463.516 372.353C444.863 372.374 437.979 383.246 438 404.884C438.042 426.523 444.947 437.374 463.6 437.353C470.4 437.353 481.726 435.785 488 433.694L485.958 422.927C479.874 425.122 470.947 426.398 465.368 426.419Z" fill="#C2DBFE"/>
<path d="M519.458 371.353C501.208 371.374 491.959 379.329 492 404.395C492.042 429.461 501.312 437.374 519.542 437.353C537.792 437.332 547.041 429.377 547 404.311C546.979 379.245 537.709 371.332 519.458 371.353ZM519.625 426.493C509.502 426.514 504.68 423.421 504.659 404.374C504.638 385.328 509.419 382.213 519.562 382.213C529.685 382.192 534.507 385.285 534.528 404.332C534.549 423.379 529.747 426.472 519.625 426.493Z" fill="#C2DBFE"/>
<path d="M578.88 372.353L569.963 372.374C557.512 372.395 553.979 376.564 554 387.185L554.063 436.353L578.985 436.311C596.735 436.29 605.021 426.214 605 410.502L604.979 398.079C604.958 382.388 596.651 372.311 578.88 372.353ZM579.048 425.774L566.492 425.795L566.429 388.505C566.429 384.231 567.649 382.87 571.624 382.87H578.964C587.713 382.849 592.487 386.473 592.508 398.456L592.529 410.167C592.571 422.129 587.797 425.774 579.048 425.774Z" fill="#C2DBFE"/>
<path d="M623.418 425.819L623.398 408.856L654.704 408.814L654.683 398.301L623.377 398.343L623.356 388.542C623.356 384.269 624.566 382.908 628.511 382.908L655.873 382.866L655.852 372.353L626.841 372.395C614.486 372.416 610.979 376.583 611 387.201L611.063 436.353L657 436.29L656.979 425.777L623.418 425.819Z" fill="#C2DBFE"/>
</svg>
