<svg width="585" height="426" viewBox="0 0 585 426" fill="none" xmlns="http://www.w3.org/2000/svg">
<path d="M581.115 203.147C578.652 201.491 575.485 200.664 571.615 200.664H564.243C561.914 200.664 559.652 200.531 557.458 200.283C555.263 200.035 553.319 199.207 551.644 197.8C549.952 196.392 548.595 194.224 547.573 191.277C546.534 188.347 546.015 184.059 546.015 178.447V76.8823C546.015 57.215 536.448 47.3813 517.315 47.3813H462.26C458.39 47.3813 455.676 48.5236 454.118 50.8248C452.56 53.1259 451.789 55.6754 451.789 58.4897C451.789 61.5524 452.627 64.1846 454.302 66.3533C455.978 68.522 458.625 69.6146 462.26 69.6146H508.804C513.461 69.6146 516.628 70.5748 518.303 72.4952C519.979 74.4156 520.816 77.9252 520.816 83.0407V175.384C520.816 186.112 522.693 194.108 526.446 199.339C530.199 204.571 535.041 208.213 540.988 210.265C535.041 213.328 530.199 217.55 526.446 222.913C522.693 228.277 520.816 235.048 520.816 243.226V343.235C520.816 348.334 520.096 351.661 518.689 353.201C517.264 354.741 514.098 355.502 509.189 355.502H462.26C458.39 355.502 455.676 356.644 454.118 358.945C452.56 361.247 451.789 363.796 451.789 366.61C451.789 369.673 452.627 372.289 454.302 374.474C455.978 376.643 458.625 377.735 462.26 377.735H515.003C535.677 377.735 546.031 368.663 546.031 350.536V244.385C546.031 239.021 546.551 234.866 547.589 231.936C548.611 229.006 549.969 226.903 551.661 225.612C553.336 224.337 555.28 223.576 557.474 223.311C559.669 223.062 561.931 222.93 564.26 222.93H571.246C575.117 222.93 578.35 222.036 580.947 220.248C583.527 218.46 584.817 215.398 584.817 211.044C584.801 207.435 583.577 204.802 581.115 203.147Z" fill="#2A7FFC"/>
<path d="M460.564 289.562C464.049 285.092 466.83 280.242 468.907 274.994C470.968 269.762 472.007 264.581 472.007 259.482C472.007 252.33 470.063 246.072 466.193 240.708C462.323 235.345 456.107 232.663 447.579 232.663C441.632 232.663 436.522 234.451 432.266 238.026C427.994 241.602 425.866 246.453 425.866 252.595C425.866 258.472 428.061 263.389 432.467 267.345C436.857 271.302 443.19 273.288 451.466 273.288C450.176 277.891 447.395 282.294 443.123 286.516C438.85 290.737 433.74 293.982 427.809 296.283C426 296.796 424.509 297.889 423.353 299.545C422.197 301.2 422.247 303.319 423.554 305.869C424.576 307.657 426.134 308.55 428.212 308.55C430.272 308.55 432.35 308.302 434.411 307.789C439.32 306.763 444.044 304.594 448.568 301.266C453.058 297.922 457.062 294.032 460.564 289.562Z" fill="#2A7FFC"/>
<path d="M448.737 159.836C454.685 159.836 459.795 157.667 464.05 153.313C468.322 148.976 470.45 143.861 470.45 137.984C470.45 132.107 468.322 127.057 464.05 122.852C459.778 118.631 454.685 116.528 448.737 116.528C442.789 116.528 437.679 118.631 433.424 122.852C429.151 127.074 427.023 132.107 427.023 137.984C427.023 143.861 429.151 148.976 433.424 153.313C437.679 157.667 442.789 159.836 448.737 159.836Z" fill="#2A7FFC"/>
<path d="M316.036 185.697L301.929 199.851C368.795 264.863 367.907 295.241 361.423 307.558C351.404 326.613 314.461 331.182 284.789 325.801C279.646 324.874 273.832 323.384 267.482 321.447C273.882 292.394 276.664 261.568 277.686 235.146C279.512 188.362 276.178 137.82 269.359 101.631C288.559 96.565 305.849 94.3467 320.627 95.1578C340.48 96.267 352.945 101.697 357.687 111.332C367.186 130.619 347.651 165.45 339.324 177.237L347.567 182.932L355.794 188.627C359.546 183.33 392.066 135.85 375.781 102.674C367.622 86.0526 349.444 76.8646 321.749 75.325C303.805 74.3317 284.387 77.1957 264.986 82.2781C264.366 79.9935 263.729 77.7917 263.059 75.7223C251.482 39.1193 223.771 0 190.246 0C190.011 0 189.776 0 189.542 0C155.497 0.562868 127.35 39.467 105.922 115.636L125.29 120.95C149.901 33.5072 176.323 20.0812 189.877 19.8659C189.994 19.8659 190.128 19.8659 190.246 19.8659C212.361 19.8659 234.359 51.6018 243.909 81.6656C244.546 83.6522 245.149 85.7712 245.752 88.0227C209.865 99.9257 175.82 117.623 153.52 130.436C119.023 150.253 85.934 173.446 61.0038 194.736C45.8077 178.777 34.6327 163.248 28.0818 148.68C20.0063 130.718 19.2021 117.275 25.7195 108.716C38.7542 91.5654 78.9978 92.8236 93.4231 94.7605L94.7802 84.9269L96.154 75.0933C89.6534 74.2158 32.0693 67.3124 9.65223 96.7802C-1.57307 111.547 -1.55632 131.728 9.70249 156.775C17.7612 174.704 30.9133 192.071 46.1931 208.112C38.8715 215.132 32.706 221.787 27.9813 227.846C5.79877 256.337 -9.28 297.228 7.08884 324.278C17.1749 340.933 36.5762 349.309 64.9578 349.309C74.3904 349.309 84.8115 348.382 96.2043 346.528L92.9372 326.927C56.7147 332.821 32.9908 328.384 24.3456 314.08C13.3884 296.002 25.9205 263.091 43.9313 239.931C48.1533 234.517 53.7492 228.508 60.4509 222.101C86.4534 246.288 115.673 266.485 136.18 279.464C172.453 302.426 211.523 322.176 243.541 334.228C237.442 355.617 229.182 373.811 218.342 386.492C205.894 401.027 194.484 407.136 184.398 404.636C157.525 397.981 134.303 334.476 125.976 296.002L106.307 300.141C108.77 311.564 131.757 412.053 179.489 423.889C182.689 424.684 185.906 425.081 189.106 425.081C204.068 425.081 219.012 416.456 233.689 399.322C246.707 384.124 256.006 363.48 262.624 340.734C269.359 342.77 275.608 344.326 281.204 345.336C290.268 346.975 299.734 347.869 309.116 347.869C338.822 347.869 367.605 338.946 379.3 316.713C395.333 286.185 374.056 242.1 316.036 185.697ZM248.332 314.759C218.124 303.121 180.93 284.215 147.02 262.744C118.873 244.914 94.7299 226.687 75.3286 208.791C99.1866 188.594 131.053 166.328 163.64 147.604C194.501 129.874 223.72 116.365 250.024 107.475C259.524 159.838 262.49 247.861 248.332 314.759Z" fill="#2A7FFC"/>
<path d="M194.095 165.898C168.78 165.898 148.172 186.261 148.172 211.276C148.172 236.29 168.78 256.653 194.095 256.653C219.411 256.653 240.018 236.29 240.018 211.276C240.018 186.244 219.411 165.898 194.095 165.898ZM194.095 236.77C179.854 236.77 168.277 225.331 168.277 211.259C168.277 197.187 179.854 185.748 194.095 185.748C208.336 185.748 219.913 197.187 219.913 211.259C219.913 225.331 208.336 236.77 194.095 236.77Z" fill="#2A7FFC"/>
</svg>
