<svg width="349" height="310" viewBox="0 0 349 310" fill="none" xmlns="http://www.w3.org/2000/svg">
<path d="M346.739 122.71C345.269 121.71 343.379 121.21 341.069 121.21H336.669C335.279 121.21 333.929 121.13 332.619 120.98C331.309 120.83 330.149 120.33 329.149 119.48C328.139 118.63 327.329 117.32 326.719 115.54C326.099 113.77 325.789 111.18 325.789 107.79V46.4401C325.789 34.5601 320.079 28.6201 308.659 28.6201H275.799C273.489 28.6201 271.869 29.3101 270.939 30.7001C270.009 32.0901 269.549 33.6301 269.549 35.3301C269.549 37.1801 270.049 38.7701 271.049 40.0801C272.049 41.3901 273.629 42.0501 275.799 42.0501H303.579C306.359 42.0501 308.249 42.6301 309.249 43.7901C310.249 44.9501 310.749 47.0701 310.749 50.1601V105.94C310.749 112.42 311.869 117.25 314.109 120.41C316.349 123.57 319.239 125.77 322.789 127.01C319.239 128.86 316.349 131.41 314.109 134.65C311.869 137.89 310.749 141.98 310.749 146.92V207.33C310.749 210.41 310.319 212.42 309.479 213.35C308.629 214.28 306.739 214.74 303.809 214.74H275.799C273.489 214.74 271.869 215.43 270.939 216.82C270.009 218.21 269.549 219.75 269.549 221.45C269.549 223.3 270.049 224.88 271.049 226.2C272.049 227.51 273.629 228.17 275.799 228.17H307.279C319.619 228.17 325.799 222.69 325.799 211.74V147.62C325.799 144.38 326.109 141.87 326.729 140.1C327.339 138.33 328.149 137.06 329.159 136.28C330.159 135.51 331.319 135.05 332.629 134.89C333.939 134.74 335.289 134.66 336.679 134.66H340.849C343.159 134.66 345.089 134.12 346.639 133.04C348.179 131.96 348.949 130.11 348.949 127.48C348.939 125.3 348.209 123.71 346.739 122.71Z" fill="#0D6EFD"/>
<path d="M267.73 96.5497C271.28 96.5497 274.33 95.2397 276.87 92.6096C279.42 89.9897 280.69 86.8996 280.69 83.3496C280.69 79.7996 279.42 76.7496 276.87 74.2096C274.32 71.6596 271.28 70.3896 267.73 70.3896C264.18 70.3896 261.13 71.6596 258.59 74.2096C256.04 76.7596 254.77 79.7996 254.77 83.3496C254.77 86.8996 256.04 89.9897 258.59 92.6096C261.13 95.2397 264.18 96.5497 267.73 96.5497Z" fill="#0D6EFD"/>
<path d="M255.459 186.36C256.689 186.36 257.929 186.21 259.159 185.9C262.089 185.28 264.909 183.97 267.609 181.96C270.309 179.96 272.699 177.6 274.789 174.9C276.869 172.2 278.529 169.27 279.769 166.1C280.999 162.94 281.619 159.81 281.619 156.73C281.619 152.41 280.459 148.63 278.149 145.39C275.839 142.15 272.129 140.53 267.039 140.53C263.489 140.53 260.439 141.61 257.899 143.77C255.349 145.93 254.079 148.86 254.079 152.57C254.079 156.12 255.389 159.09 258.019 161.48C260.639 163.87 264.419 165.07 269.359 165.07C268.589 167.85 266.929 170.51 264.379 173.06C261.829 175.61 258.779 177.57 255.239 178.96C254.159 179.27 253.269 179.93 252.579 180.93C251.889 181.93 251.919 183.21 252.699 184.75C253.299 185.82 254.219 186.36 255.459 186.36Z" fill="#0D6EFD"/>
<path d="M112.749 256.78C121.679 256.78 130.599 251.57 139.359 241.22C147.129 232.04 152.679 219.57 156.629 205.83C160.649 207.06 164.379 208 167.719 208.61C173.129 209.6 178.779 210.14 184.379 210.14C202.109 210.14 219.289 204.75 226.269 191.32C235.859 172.88 223.159 146.25 188.529 112.17L180.109 120.72C220.019 159.99 219.489 178.34 215.619 185.78C209.639 197.29 187.589 200.05 169.879 196.8C166.809 196.24 163.339 195.34 159.549 194.17C163.369 176.62 165.029 158 165.639 142.04C166.729 113.78 164.739 83.25 160.669 61.39C172.129 58.33 182.449 56.99 191.269 57.48C203.119 58.15 210.559 61.43 213.389 67.25C219.059 78.9 207.399 99.94 202.429 107.06L207.349 110.5L212.259 113.94C214.499 110.74 233.909 82.06 224.189 62.02C219.319 51.98 208.469 46.43 191.939 45.5C181.229 44.9 169.639 46.63 158.059 49.7C157.689 48.32 157.309 46.99 156.909 45.74C149.989 23.63 133.449 0 113.439 0C113.299 0 113.159 0 113.019 0C92.6992 0.34 75.8992 23.84 63.1092 69.85L74.6692 73.06C89.3592 20.24 105.129 12.13 113.219 12C113.289 12 113.369 12 113.439 12C126.639 12 139.769 31.17 145.469 49.33C145.849 50.53 146.209 51.81 146.569 53.17C125.149 60.36 104.829 71.05 91.5192 78.79C70.9292 90.76 51.1792 104.77 36.2992 117.63C27.2292 107.99 20.5592 98.61 16.6492 89.81C11.8292 78.96 11.3492 70.84 15.2392 65.67C23.0192 55.31 47.0392 56.07 55.6492 57.24L56.4592 51.3L57.2792 45.36C53.3992 44.83 19.0292 40.66 5.64917 58.46C-1.05083 67.38 -1.04083 79.57 5.67917 94.7C10.4892 105.53 18.3392 116.02 27.4592 125.71C23.0892 129.95 19.4092 133.97 16.5892 137.63C3.34917 154.84 -5.65083 179.54 4.11917 195.88C10.1392 205.94 21.7192 211 38.6592 211C44.2892 211 50.5092 210.44 57.3092 209.32L55.3592 197.48C33.7392 201.04 19.5792 198.36 14.4192 189.72C7.87917 178.8 15.3592 158.92 26.1092 144.93C28.6192 141.66 31.9692 138.03 35.9692 134.16C51.4892 148.77 68.9292 160.97 81.1692 168.81C102.819 182.68 126.139 194.61 145.249 201.89C141.609 214.81 136.679 225.8 130.209 233.46C122.779 242.24 115.969 245.93 109.949 244.42C93.9092 240.4 80.0492 202.04 75.0792 178.8L63.3392 181.3C64.8092 188.2 78.5292 248.9 107.019 256.05C108.919 256.54 110.839 256.78 112.749 256.78ZM87.6392 158.71C70.8392 147.94 56.4292 136.93 44.8492 126.12C59.0892 113.92 78.1092 100.47 97.5592 89.16C115.979 78.45 133.419 70.29 149.119 64.92C154.789 96.54 156.559 149.72 148.109 190.13C130.079 183.1 107.879 171.68 87.6392 158.71Z" fill="#0D6EFD"/>
<path d="M115.74 100.21C100.63 100.21 88.3301 112.51 88.3301 127.62C88.3301 142.73 100.63 155.03 115.74 155.03C130.85 155.03 143.15 142.73 143.15 127.62C143.15 112.5 130.85 100.21 115.74 100.21ZM115.74 143.02C107.24 143.02 100.33 136.11 100.33 127.61C100.33 119.11 107.24 112.2 115.74 112.2C124.24 112.2 131.15 119.11 131.15 127.61C131.15 136.11 124.24 143.02 115.74 143.02Z" fill="#0D6EFD"/>
<path d="M20.8487 275.27C12.0687 275.28 7.61874 279.06 7.63874 290.97C7.65874 302.88 12.1187 306.64 20.8887 306.63C22.6087 306.63 24.1687 306.5 25.5487 306.15L27.5687 309.4L33.9087 309.39L30.3687 303.68C32.8387 301.3 34.0987 297.27 34.0887 290.94C34.0887 279.02 29.6287 275.26 20.8487 275.27ZM27.0587 298.35L25.0387 295.02L18.6987 295.03L22.6187 301.39C22.1187 301.48 21.5287 301.48 20.9387 301.48C16.0687 301.49 13.7487 300.02 13.7387 290.97C13.7287 281.92 16.0287 280.44 20.9087 280.44C25.7787 280.43 28.0987 281.9 28.1087 290.95C28.0987 294.4 27.7687 296.74 27.0587 298.35Z" fill="#0D6EFD"/>
<path d="M55.4183 275.44L55.4483 295.58C55.4583 299.39 53.1883 301.3 49.3283 301.3C45.4683 301.31 43.1883 299.4 43.1883 295.59L43.1583 275.45L37.2383 275.46L37.2683 295.55C37.2783 302.39 42.1583 306.54 49.3383 306.53C56.5183 306.52 61.3883 302.35 61.3783 295.51L61.3483 275.42L55.4183 275.44Z" fill="#0D6EFD"/>
<path d="M72.8984 275.63L63.0684 305.96L69.2484 305.95L71.7184 297.93L82.4284 297.91L84.8784 305.92L91.0584 305.91L81.1384 275.61L72.8984 275.63ZM73.2184 293.08L76.8984 281.34H77.1484L80.9484 293.07L73.2184 293.08Z" fill="#0D6EFD"/>
<path d="M111.469 275.36L111.489 292.38L111.579 296.45H111.499L109.809 292.9L100.629 278.06C99.3194 275.85 98.3994 275.38 95.8794 275.38H92.6895L92.7295 305.91L98.1895 305.9L98.1595 288.28L98.0695 284.34H98.1495L99.8394 287.89L109.309 303.21C110.619 305.42 111.539 305.89 114.059 305.89H116.999L116.959 275.36H111.469Z" fill="#0D6EFD"/>
<path d="M142.508 275.31L119.318 275.35L119.328 280.46L127.858 280.44L127.898 305.86H134.068L134.028 280.44L142.518 280.42L142.508 275.31Z" fill="#0D6EFD"/>
<path d="M163.01 275.28L163.04 295.42C163.05 299.23 160.78 301.14 156.92 301.14C153.06 301.14 150.78 299.24 150.78 295.43L150.75 275.29L144.83 275.3L144.86 295.39C144.87 302.23 149.75 306.38 156.93 306.37C164.11 306.36 168.98 302.2 168.97 295.35L168.94 275.26L163.01 275.28Z" fill="#0D6EFD"/>
<path d="M195.819 275.24L189.419 292.57L188.669 295.78H188.589L187.829 292.58L182.349 278C181.549 275.79 180.499 275.27 177.979 275.28L172.939 275.29L172.979 305.82L178.819 305.81L178.789 282.81L180.269 286.75L185.879 302.59L191.429 302.58L196.989 286.72L198.449 282.78L198.479 305.77L204.319 305.76L204.279 275.23L195.819 275.24Z" fill="#0D6EFD"/>
<path d="M230.729 300.87C225.399 300.88 223.789 298.24 223.779 290.57C223.769 282.91 225.359 280.26 230.699 280.25C233.349 280.25 237.379 280.85 240.279 281.88L241.239 276.73C238.259 275.74 233.089 275.01 229.849 275.01C220.989 275.02 217.719 280.22 217.729 290.57C217.749 300.92 221.029 306.11 229.889 306.1C233.119 306.1 238.499 305.35 241.479 304.35L240.509 299.2C237.619 300.25 233.379 300.86 230.729 300.87Z" fill="#0D6EFD"/>
<path d="M256.569 274.93C247.789 274.94 243.339 278.72 243.359 290.63C243.379 302.54 247.839 306.3 256.609 306.29C265.389 306.28 269.839 302.5 269.819 290.59C269.809 278.68 265.349 274.92 256.569 274.93ZM256.649 301.13C251.779 301.14 249.459 299.67 249.449 290.62C249.439 281.57 251.739 280.09 256.619 280.09C261.489 280.08 263.809 281.55 263.819 290.6C263.829 299.65 261.519 301.12 256.649 301.13Z" fill="#0D6EFD"/>
<path d="M285.01 275.11L280.77 275.12C274.85 275.13 273.17 277.12 273.18 282.19L273.21 305.66L285.06 305.64C293.5 305.63 297.44 300.82 297.43 293.32L297.42 287.39C297.41 279.9 293.46 275.09 285.01 275.11ZM285.09 300.61L279.12 300.62L279.09 282.82C279.09 280.78 279.67 280.13 281.56 280.13H285.05C289.21 280.12 291.48 281.85 291.49 287.57L291.5 293.16C291.52 298.87 289.25 300.61 285.09 300.61Z" fill="#0D6EFD"/>
<path d="M306.559 300.58L306.549 292.48L321.549 292.46L321.539 287.44L306.539 287.46L306.529 282.78C306.529 280.74 307.109 280.09 308.999 280.09L322.109 280.07L322.099 275.05L308.199 275.07C302.279 275.08 300.599 277.07 300.609 282.14L300.639 305.61L322.649 305.58L322.639 300.56L306.559 300.58Z" fill="#0D6EFD"/>
</svg>
