<svg width="440" height="135" viewBox="0 0 440 135" fill="none" xmlns="http://www.w3.org/2000/svg">
<path d="M180.436 64.3561C179.671 63.8358 178.687 63.5756 177.485 63.5756H175.196C174.472 63.5756 173.77 63.5339 173.088 63.4559C172.406 63.3778 171.803 63.1176 171.282 62.6753C170.757 62.233 170.335 61.5513 170.018 60.625C169.695 59.7039 169.534 58.3562 169.534 56.5921V24.6667C169.534 18.4846 166.562 15.3936 160.62 15.3936H143.52C142.318 15.3936 141.475 15.7526 140.991 16.4759C140.507 17.1993 140.268 18.0007 140.268 18.8853C140.268 19.848 140.528 20.6754 141.048 21.3571C141.569 22.0388 142.391 22.3823 143.52 22.3823H157.976C159.423 22.3823 160.406 22.6841 160.927 23.2877C161.447 23.8914 161.707 24.9946 161.707 26.6025V55.6294C161.707 59.0014 162.29 61.5149 163.456 63.1593C164.621 64.8037 166.125 65.9485 167.973 66.5938C166.125 67.5565 164.621 68.8834 163.456 70.5695C162.29 72.2555 161.707 74.3839 161.707 76.9545V108.391C161.707 109.993 161.483 111.039 161.046 111.523C160.604 112.007 159.621 112.247 158.096 112.247H143.52C142.318 112.247 141.475 112.606 140.991 113.329C140.507 114.052 140.268 114.854 140.268 115.738C140.268 116.701 140.528 117.523 141.048 118.21C141.569 118.892 142.391 119.235 143.52 119.235H159.902C166.323 119.235 169.539 116.384 169.539 110.686V77.3188C169.539 75.6328 169.7 74.3266 170.023 73.4056C170.34 72.4845 170.762 71.8236 171.287 71.4177C171.808 71.017 172.411 70.7776 173.093 70.6944C173.775 70.6163 174.477 70.5747 175.201 70.5747H177.371C178.573 70.5747 179.577 70.2937 180.384 69.7317C181.185 69.1697 181.586 68.207 181.586 66.8384C181.581 65.7039 181.201 64.8765 180.436 64.3561Z" fill="#0D6EFD"/>
<path d="M142.996 91.5202C144.078 90.1152 144.942 88.5905 145.587 86.9409C146.227 85.2965 146.55 83.6677 146.55 82.0649C146.55 79.8169 145.946 77.8498 144.744 76.1638C143.542 74.4778 141.611 73.6348 138.963 73.6348C137.115 73.6348 135.528 74.1968 134.206 75.3208C132.879 76.4448 132.219 77.9695 132.219 79.9001C132.219 81.7475 132.9 83.293 134.269 84.5367C135.632 85.7804 137.599 86.4049 140.17 86.4049C139.769 87.8516 138.905 89.2358 137.579 90.5627C136.252 91.8897 134.664 92.9097 132.822 93.633C132.26 93.7943 131.797 94.1378 131.438 94.6581C131.079 95.1785 131.095 95.8446 131.5 96.646C131.818 97.208 132.302 97.489 132.947 97.489C133.587 97.489 134.232 97.4109 134.873 97.2496C136.397 96.927 137.865 96.2453 139.27 95.1993C140.664 94.1482 141.908 92.9253 142.996 91.5202Z" fill="#0D6EFD"/>
<path d="M139.32 50.743C141.168 50.743 142.755 50.0613 144.077 48.6927C145.404 47.3293 146.064 45.7214 146.064 43.874C146.064 42.0267 145.404 40.4395 144.077 39.1177C142.75 37.7908 141.168 37.1299 139.32 37.1299C137.473 37.1299 135.886 37.7908 134.564 39.1177C133.237 40.4447 132.576 42.0267 132.576 43.874C132.576 45.7214 133.237 47.3293 134.564 48.6927C135.886 50.0613 137.473 50.743 139.32 50.743Z" fill="#0D6EFD"/>
<path d="M98.1017 58.8711L93.7201 63.3203C114.488 83.7557 114.213 93.3046 112.199 97.1763C109.087 103.166 97.6125 104.602 88.3966 102.911C86.799 102.619 84.9933 102.151 83.021 101.542C85.0089 92.4096 85.8727 82.7201 86.1902 74.4148C86.7574 59.7089 85.7218 43.8217 83.6039 32.4462C89.5674 30.8538 94.9378 30.1565 99.5275 30.4115C105.694 30.7601 109.566 32.467 111.038 35.4956C113.989 41.558 107.921 52.5068 105.335 56.2119L107.895 58.002L110.45 59.7921C111.616 58.1269 121.717 43.2024 116.658 32.774C114.124 27.5494 108.478 24.6613 99.8762 24.1773C94.3029 23.8651 88.2717 24.7653 82.2457 26.3629C82.0531 25.6448 81.8554 24.9527 81.6472 24.3022C78.0514 12.7966 69.4443 0.5 59.0315 0.5C58.9587 0.5 58.8858 0.5 58.813 0.5C48.2388 0.676929 39.4964 12.9059 32.8408 36.8486L38.8564 38.519C46.5008 11.0325 54.7072 6.81221 58.917 6.74456C58.9535 6.74456 58.9951 6.74456 59.0315 6.74456C65.9005 6.74456 72.7331 16.7203 75.6993 26.1704C75.897 26.7948 76.0844 27.4609 76.2717 28.1686C65.1252 31.9102 54.551 37.473 47.6248 41.5008C36.9101 47.7297 26.6326 55.0203 18.8894 61.7123C14.1695 56.6959 10.6986 51.8147 8.6639 47.2354C6.15567 41.5892 5.90589 37.3637 7.93017 34.6734C11.9787 29.2822 24.4783 29.6777 28.9587 30.2866L29.3802 27.1955L29.807 24.1045C27.7879 23.8287 9.90241 21.6587 2.93972 30.9214C-0.546829 35.5632 -0.541625 41.9067 2.95533 49.78C5.45836 55.4157 9.54334 60.8745 14.2892 65.917C12.0152 68.1234 10.1002 70.2154 8.63268 72.12C1.74284 81.0757 -2.94058 93.9291 2.14354 102.432C5.27623 107.667 11.3022 110.3 20.1175 110.3C23.0472 110.3 26.284 110.009 29.8226 109.426L28.8078 103.265C17.5572 105.117 10.1886 103.723 7.50345 99.2266C4.10017 93.544 7.99261 83.1988 13.5867 75.9187C14.8981 74.2171 16.6361 72.3281 18.7177 70.3142C26.794 77.917 35.8694 84.2656 42.2388 88.3454C53.5051 95.5631 65.6403 101.771 75.5848 105.56C73.6906 112.283 71.1252 118.002 67.7583 121.988C63.8919 126.557 60.3481 128.477 57.2154 127.691C48.8685 125.599 41.656 105.638 39.0697 93.544L32.9605 94.845C33.7254 98.4356 40.865 130.023 55.6907 133.743C56.6846 133.993 57.6837 134.118 58.6777 134.118C63.3247 134.118 67.9664 131.407 72.525 126.021C76.5683 121.244 79.4564 114.755 81.5119 107.605C83.6039 108.245 85.5449 108.734 87.283 109.051C90.0982 109.567 93.0384 109.848 95.9525 109.848C105.179 109.848 114.119 107.043 117.751 100.054C122.731 90.4582 116.122 76.6004 98.1017 58.8711ZM77.0731 99.4399C67.6906 95.7816 56.1382 89.8389 45.6057 83.0896C36.8633 77.4851 29.3646 71.7557 23.3386 66.1304C30.7488 59.7817 40.6465 52.7826 50.7679 46.8971C60.3533 41.3238 69.4287 37.0775 77.5987 34.2831C80.5492 50.7427 81.4703 78.4114 77.0731 99.4399Z" fill="#0D6EFD"/>
<path d="M60.2285 52.6475C52.3655 52.6475 45.9648 59.0481 45.9648 66.9111C45.9648 74.774 52.3655 81.1747 60.2285 81.1747C68.0914 81.1747 74.4921 74.774 74.4921 66.9111C74.4921 59.0429 68.0914 52.6475 60.2285 52.6475ZM60.2285 74.9249C55.8052 74.9249 52.2094 71.3291 52.2094 66.9059C52.2094 62.4826 55.8052 58.8868 60.2285 58.8868C64.6517 58.8868 68.2475 62.4826 68.2475 66.9059C68.2475 71.3291 64.6517 74.9249 60.2285 74.9249Z" fill="#0D6EFD"/>
<path d="M216.155 53.803C218.258 53.7978 220.152 53.6365 221.843 53.215L224.31 57.1699L232.042 57.1595L227.729 50.1916C230.747 47.2827 232.277 42.3703 232.266 34.6582C232.245 20.1344 226.807 15.5499 216.103 15.5655C205.399 15.5811 199.971 20.1812 199.992 34.7051C200.008 49.2341 205.446 53.8186 216.155 53.803ZM216.16 21.8517C222.103 21.8413 224.924 23.6314 224.939 34.6686C224.944 38.8941 224.539 41.7458 223.675 43.7024L221.208 39.6383L213.475 39.6487L218.252 47.4075C217.638 47.5168 216.92 47.5168 216.202 47.5168C210.259 47.5272 207.439 45.7319 207.423 34.6947C207.402 23.6626 210.218 21.8621 216.16 21.8517Z" fill="#0D6EFD"/>
<path d="M265.482 15.7627L258.259 15.7731L258.295 40.3299C258.3 44.9768 255.537 47.3029 250.828 47.3134C246.113 47.3186 243.345 45.0029 243.339 40.3559L243.303 15.7991L236.08 15.8095L236.116 40.3142C236.127 48.6559 242.08 53.7192 250.838 53.7088C259.596 53.6932 265.534 48.6143 265.518 40.2726L265.482 15.7627Z" fill="#0D6EFD"/>
<path d="M278.126 43.2029L291.187 43.1821L294.174 52.9496L301.704 52.9392L289.61 15.9922L279.572 16.0078L267.588 52.9912L275.118 52.9808L278.126 43.2029ZM284.448 22.9705H284.755L289.387 37.2757L279.963 37.2862L284.448 22.9705Z" fill="#0D6EFD"/>
<path d="M326.606 15.6738L326.637 36.4266L326.746 41.391H326.642L324.587 37.0614L313.393 18.9626C311.801 16.2723 310.672 15.6946 307.601 15.6946L303.709 15.6998L303.761 52.933L310.422 52.9226L310.391 31.4309L310.281 26.6278H310.385L312.441 30.9522L323.993 49.6286C325.586 52.319 326.715 52.8966 329.785 52.8966L333.371 52.8914L333.319 15.6582L326.606 15.6738Z" fill="#0D6EFD"/>
<path d="M364.463 15.6172L336.186 15.6588L336.196 21.8878L346.593 21.8722L346.64 52.8712L354.17 52.8608L354.123 21.8618L364.473 21.8513L364.463 15.6172Z" fill="#0D6EFD"/>
<path d="M389.462 15.5807L389.498 40.1375C389.503 44.7845 386.74 47.1106 382.031 47.121C377.316 47.1262 374.548 44.8105 374.543 40.1635L374.506 15.6067L367.283 15.6171L367.32 40.1219C367.33 48.4636 373.283 53.5269 382.041 53.5112C390.799 53.4956 396.737 48.4219 396.726 40.075L396.69 15.5703L389.462 15.5807Z" fill="#0D6EFD"/>
<path d="M439.771 15.5078L429.473 15.5234L421.667 36.6561L420.752 40.5693H420.647L419.721 36.6613L413.034 18.8747C412.056 16.1843 410.776 15.5494 407.7 15.5546L401.555 15.5651L401.607 52.7931L408.726 52.7827L408.684 24.7394L410.484 29.5425L417.327 48.859L424.092 48.8486L430.878 29.5112L432.663 24.7029L432.705 52.7462L439.823 52.7358L439.771 15.5078Z" fill="#0D6EFD"/>
<path d="M213.48 109.02C206.976 109.031 205.024 105.809 205.009 96.4633C204.993 87.1173 206.939 83.8909 213.444 83.8805C216.67 83.8753 221.588 84.6091 225.126 85.8684L226.297 79.5822C222.66 78.3697 216.358 77.4851 212.414 77.4903C201.605 77.5059 197.619 83.8493 197.635 96.4685C197.656 109.093 201.657 115.421 212.466 115.405C216.41 115.4 222.967 114.489 226.599 113.272L225.413 106.991C221.885 108.266 216.712 109.015 213.48 109.02Z" fill="#0D6EFD"/>
<path d="M244.994 77.3916C234.29 77.4073 228.862 82.0074 228.883 96.5312C228.904 111.055 234.342 115.64 245.046 115.624C255.75 115.608 261.178 111.003 261.157 96.4844C261.136 81.9658 255.703 77.376 244.994 77.3916ZM245.093 109.343C239.15 109.353 236.33 107.558 236.314 96.5208C236.298 85.4836 239.114 83.683 245.056 83.6778C250.999 83.6674 253.82 85.4627 253.835 96.5C253.851 107.532 251.035 109.333 245.093 109.343Z" fill="#0D6EFD"/>
<path d="M279.676 77.6045L274.504 77.6097C267.281 77.6201 265.236 80.0555 265.246 86.2324L265.288 114.853L279.734 114.833C290.032 114.817 294.835 108.947 294.825 99.8144L294.814 92.5811C294.799 83.4484 289.975 77.5889 279.676 77.6045ZM279.775 108.708L272.5 108.718L272.469 87.013C272.464 84.5308 273.182 83.7398 275.487 83.7346L279.739 83.7294C284.812 83.7242 287.581 85.8317 287.591 92.7996L287.602 99.6114C287.607 106.585 284.844 108.702 279.775 108.708Z" fill="#0D6EFD"/>
<path d="M305.957 108.671L305.941 98.7943L324.227 98.7683L324.217 92.6434L305.931 92.6694L305.92 86.9661C305.915 84.4839 306.633 83.6929 308.938 83.6877L324.919 83.6669L324.909 77.542L307.955 77.568C300.732 77.5784 298.687 80.0138 298.697 86.1907L298.739 114.812L325.58 114.775L325.57 108.65L305.957 108.671Z" fill="#0D6EFD"/>
</svg>
