<svg width="846" height="258" viewBox="0 0 846 258" fill="none" xmlns="http://www.w3.org/2000/svg">
<path d="M346.739 123.21C345.269 122.21 343.379 121.71 341.069 121.71H336.669C335.279 121.71 333.929 121.63 332.619 121.48C331.309 121.33 330.149 120.83 329.149 119.98C328.139 119.13 327.329 117.82 326.719 116.04C326.099 114.27 325.789 111.68 325.789 108.29V46.9401C325.789 35.0601 320.079 29.1201 308.659 29.1201H275.799C273.489 29.1201 271.869 29.8101 270.939 31.2001C270.009 32.5901 269.549 34.1301 269.549 35.8301C269.549 37.6801 270.049 39.2701 271.049 40.5801C272.049 41.8901 273.629 42.5501 275.799 42.5501H303.579C306.359 42.5501 308.249 43.1301 309.249 44.2901C310.249 45.4501 310.749 47.5701 310.749 50.6601V106.44C310.749 112.92 311.869 117.75 314.109 120.91C316.349 124.07 319.239 126.27 322.789 127.51C319.239 129.36 316.349 131.91 314.109 135.15C311.869 138.39 310.749 142.48 310.749 147.42V207.83C310.749 210.91 310.319 212.92 309.479 213.85C308.629 214.78 306.739 215.24 303.809 215.24H275.799C273.489 215.24 271.869 215.93 270.939 217.32C270.009 218.71 269.549 220.25 269.549 221.95C269.549 223.8 270.049 225.38 271.049 226.7C272.049 228.01 273.629 228.67 275.799 228.67H307.279C319.619 228.67 325.799 223.19 325.799 212.24V148.12C325.799 144.88 326.109 142.37 326.729 140.6C327.339 138.83 328.149 137.56 329.159 136.78C330.159 136.01 331.319 135.55 332.629 135.39C333.939 135.24 335.289 135.16 336.679 135.16H340.849C343.159 135.16 345.089 134.62 346.639 133.54C348.179 132.46 348.949 130.61 348.949 127.98C348.939 125.8 348.209 124.21 346.739 123.21Z" fill="#0D6EFD"/>
<path d="M274.789 175.41C276.869 172.71 278.529 169.78 279.769 166.61C280.999 163.45 281.619 160.32 281.619 157.24C281.619 152.92 280.459 149.14 278.149 145.9C275.839 142.66 272.129 141.04 267.039 141.04C263.489 141.04 260.439 142.12 257.899 144.28C255.349 146.44 254.079 149.37 254.079 153.08C254.079 156.63 255.389 159.6 258.019 161.99C260.639 164.38 264.419 165.58 269.359 165.58C268.589 168.36 266.929 171.02 264.379 173.57C261.829 176.12 258.779 178.08 255.239 179.47C254.159 179.78 253.269 180.44 252.579 181.44C251.889 182.44 251.919 183.72 252.699 185.26C253.309 186.34 254.239 186.88 255.479 186.88C256.709 186.88 257.949 186.73 259.179 186.42C262.109 185.8 264.929 184.49 267.629 182.48C270.309 180.46 272.699 178.11 274.789 175.41Z" fill="#0D6EFD"/>
<path d="M267.73 97.0497C271.28 97.0497 274.33 95.7397 276.87 93.1096C279.42 90.4897 280.69 87.3996 280.69 83.8496C280.69 80.2996 279.42 77.2496 276.87 74.7096C274.32 72.1596 271.28 70.8896 267.73 70.8896C264.18 70.8896 261.13 72.1596 258.59 74.7096C256.04 77.2596 254.77 80.2996 254.77 83.8496C254.77 87.3996 256.04 90.4897 258.59 93.1096C261.13 95.7397 264.18 97.0497 267.73 97.0497Z" fill="#0D6EFD"/>
<path d="M188.519 112.67L180.099 121.22C220.009 160.49 219.479 178.84 215.609 186.28C209.629 197.79 187.579 200.55 169.869 197.3C166.799 196.74 163.329 195.84 159.539 194.67C163.359 177.12 165.019 158.5 165.629 142.54C166.719 114.28 164.729 83.75 160.659 61.89C172.119 58.83 182.439 57.49 191.259 57.98C203.109 58.65 210.549 61.93 213.379 67.75C219.049 79.4 207.389 100.44 202.419 107.56L207.339 111L212.249 114.44C214.489 111.24 233.899 82.56 224.179 62.52C219.309 52.48 208.459 46.93 191.929 46C181.219 45.4 169.629 47.13 158.049 50.2C157.679 48.82 157.299 47.49 156.899 46.24C149.989 24.13 133.449 0.5 113.439 0.5C113.299 0.5 113.159 0.5 113.019 0.5C92.6992 0.84 75.8992 24.34 63.1092 70.35L74.6692 73.56C89.3592 20.74 105.129 12.63 113.219 12.5C113.289 12.5 113.369 12.5 113.439 12.5C126.639 12.5 139.769 31.67 145.469 49.83C145.849 51.03 146.209 52.31 146.569 53.67C125.149 60.86 104.829 71.55 91.5192 79.29C70.9292 91.26 51.1792 105.27 36.2992 118.13C27.2292 108.49 20.5592 99.11 16.6492 90.31C11.8292 79.46 11.3492 71.34 15.2392 66.17C23.0192 55.81 47.0392 56.57 55.6492 57.74L56.4592 51.8L57.2792 45.86C53.3992 45.33 19.0292 41.16 5.64917 58.96C-1.05083 67.88 -1.04083 80.07 5.67917 95.2C10.4892 106.03 18.3392 116.52 27.4592 126.21C23.0892 130.45 19.4092 134.47 16.5892 138.13C3.34917 155.34 -5.65083 180.04 4.11917 196.38C10.1392 206.44 21.7192 211.5 38.6592 211.5C44.2892 211.5 50.5092 210.94 57.3092 209.82L55.3592 197.98C33.7392 201.54 19.5792 198.86 14.4192 190.22C7.87917 179.3 15.3592 159.42 26.1092 145.43C28.6292 142.16 31.9692 138.53 35.9692 134.66C51.4892 149.27 68.9292 161.47 81.1692 169.31C102.819 183.18 126.139 195.11 145.249 202.39C141.609 215.31 136.679 226.3 130.209 233.96C122.779 242.74 115.969 246.43 109.949 244.92C93.9092 240.9 80.0492 202.54 75.0792 179.3L63.3392 181.8C64.8092 188.7 78.5292 249.4 107.019 256.55C108.929 257.03 110.849 257.27 112.759 257.27C121.689 257.27 130.609 252.06 139.369 241.71C147.139 232.53 152.689 220.06 156.639 206.32C160.659 207.55 164.389 208.49 167.729 209.1C173.139 210.09 178.789 210.63 184.389 210.63C202.119 210.63 219.299 205.24 226.279 191.81C235.849 173.37 223.149 146.74 188.519 112.67ZM148.109 190.63C130.079 183.6 107.879 172.18 87.6392 159.21C70.8392 148.44 56.4292 137.43 44.8492 126.62C59.0892 114.42 78.1092 100.97 97.5592 89.66C115.979 78.95 133.419 70.79 149.119 65.42C154.789 97.05 156.559 150.22 148.109 190.63Z" fill="#0D6EFD"/>
<path d="M115.74 100.71C100.63 100.71 88.3301 113.01 88.3301 128.12C88.3301 143.23 100.63 155.53 115.74 155.53C130.85 155.53 143.15 143.23 143.15 128.12C143.15 113 130.85 100.71 115.74 100.71ZM115.74 143.52C107.24 143.52 100.33 136.61 100.33 128.11C100.33 119.61 107.24 112.7 115.74 112.7C124.24 112.7 131.15 119.61 131.15 128.11C131.15 136.61 124.24 143.52 115.74 143.52Z" fill="#0D6EFD"/>
<path d="M415.378 102.93C419.418 102.92 423.058 102.61 426.308 101.8L431.048 109.4L445.908 109.38L437.618 95.9903C443.418 90.4003 446.358 80.9603 446.338 66.1403C446.298 38.2303 435.848 29.4203 415.278 29.4503C394.708 29.4803 384.278 38.3203 384.318 66.2303C384.348 94.1503 394.798 102.96 415.378 102.93ZM415.388 41.5303C426.808 41.5103 432.228 44.9503 432.258 66.1603C432.268 74.2803 431.488 79.7603 429.828 83.5203L425.088 75.7103L410.228 75.7303L419.408 90.6403C418.228 90.8503 416.848 90.8503 415.468 90.8503C404.048 90.8703 398.628 87.4203 398.598 66.2103C398.558 45.0103 403.968 41.5503 415.388 41.5303Z" fill="#0D6EFD"/>
<path d="M510.17 29.8301L496.29 29.8501L496.36 77.0401C496.37 85.9701 491.06 90.4401 482.01 90.4601C472.95 90.4701 467.63 86.0201 467.62 77.0901L467.55 29.9001L453.67 29.9201L453.74 77.0101C453.76 93.0401 465.2 102.77 482.03 102.75C498.86 102.72 510.27 92.9601 510.24 76.9301L510.17 29.8301Z" fill="#0D6EFD"/>
<path d="M534.469 82.5595L559.569 82.5195L565.309 101.29L579.779 101.27L556.539 30.2695L537.249 30.2995L514.219 101.37L528.689 101.35L534.469 82.5595ZM546.619 43.6795H547.209L556.109 71.1695L537.999 71.1895L546.619 43.6795Z" fill="#0D6EFD"/>
<path d="M627.629 29.6599L627.689 69.5399L627.899 79.0799H627.699L623.749 70.7599L602.239 35.9799C599.179 30.8099 597.009 29.6999 591.109 29.6999L583.629 29.7099L583.729 101.26L596.529 101.24L596.469 59.9399L596.259 50.7099H596.459L600.409 59.0199L622.609 94.9099C625.669 100.08 627.839 101.19 633.739 101.19L640.629 101.18L640.529 29.6299L627.629 29.6599Z" fill="#0D6EFD"/>
<path d="M700.379 29.5498L646.039 29.6298L646.059 41.5998L666.039 41.5698L666.129 101.14L680.599 101.12L680.509 41.5498L700.399 41.5298L700.379 29.5498Z" fill="#0D6EFD"/>
<path d="M748.419 29.48L748.489 76.67C748.499 85.6 743.189 90.07 734.139 90.09C725.079 90.1 719.759 85.65 719.749 76.72L719.679 29.53L705.799 29.55L705.869 76.64C705.889 92.67 717.329 102.4 734.159 102.37C750.989 102.34 762.399 92.59 762.379 76.55L762.309 29.46L748.419 29.48Z" fill="#0D6EFD"/>
<path d="M845.098 29.3398L825.308 29.3698L810.308 69.9798L808.548 77.4998H808.348L806.568 69.9898L793.718 35.8098C791.838 30.6398 789.378 29.4198 783.468 29.4298L771.658 29.4498L771.758 100.99L785.438 100.97L785.358 47.0798L788.818 56.3098L801.968 93.4298L814.968 93.4099L828.008 56.2498L831.438 47.0098L831.518 100.9L845.198 100.88L845.098 29.3398Z" fill="#0D6EFD"/>
<path d="M410.239 209.04C397.739 209.06 393.989 202.87 393.959 184.91C393.929 166.95 397.669 160.75 410.169 160.73C416.369 160.72 425.819 162.13 432.619 164.55L434.869 152.47C427.879 150.14 415.769 148.44 408.189 148.45C387.419 148.48 379.759 160.67 379.789 184.92C379.829 209.18 387.519 221.34 408.289 221.31C415.869 221.3 428.469 219.55 435.449 217.21L433.169 205.14C426.389 207.59 416.449 209.03 410.239 209.04Z" fill="#0D6EFD"/>
<path d="M470.8 148.26C450.23 148.29 439.8 157.13 439.84 185.04C439.88 212.95 450.33 221.76 470.9 221.73C491.47 221.7 501.9 212.85 501.86 184.95C501.82 157.05 491.38 148.23 470.8 148.26ZM470.99 209.66C459.57 209.68 454.15 206.23 454.12 185.02C454.09 163.81 459.5 160.35 470.92 160.34C482.34 160.32 487.76 163.77 487.79 184.98C487.82 206.18 482.41 209.64 470.99 209.66Z" fill="#0D6EFD"/>
<path d="M537.449 148.67L527.509 148.68C513.629 148.7 509.699 153.38 509.719 165.25L509.799 220.25L537.559 220.21C557.349 220.18 566.579 208.9 566.559 191.35L566.539 177.45C566.509 159.9 557.239 148.64 537.449 148.67ZM537.639 208.44L523.659 208.46L523.599 166.75C523.589 161.98 524.969 160.46 529.399 160.45L537.569 160.44C547.319 160.43 552.639 164.48 552.659 177.87L552.679 190.96C552.689 204.36 547.379 208.43 537.639 208.44Z" fill="#0D6EFD"/>
<path d="M587.95 208.37L587.92 189.39L623.06 189.34L623.04 177.57L587.9 177.62L587.88 166.66C587.87 161.89 589.25 160.37 593.68 160.36L624.39 160.32L624.37 148.55L591.79 148.6C577.91 148.62 573.98 153.3 574 165.17L574.08 220.17L625.66 220.1L625.64 208.33L587.95 208.37Z" fill="#0D6EFD"/>
</svg>
